<svg width="24" height="24" viewBox="0 0 24 24" fill="none" xmlns="http://www.w3.org/2000/svg">
<path d="M11.9998 19.7503C11.801 19.7501 11.6103 19.671 11.4698 19.5303L4.6998 12.7403C3.78366 11.8056 3.27051 10.549 3.27051 9.2403C3.27051 7.93154 3.78366 6.67494 4.6998 5.7403C5.62809 4.8121 6.88706 4.29066 8.1998 4.29066C9.51253 4.29066 10.7715 4.8121 11.6998 5.7403L11.9998 6.0003L12.2798 5.7203C12.7388 5.2563 13.2855 4.88825 13.8881 4.6376C14.4907 4.38694 15.1372 4.25869 15.7898 4.2603C16.4418 4.25738 17.0878 4.38406 17.6904 4.63298C18.2929 4.88191 18.84 5.2481 19.2998 5.7103C20.2159 6.64494 20.7291 7.90154 20.7291 9.2103C20.7291 10.519 20.2159 11.7756 19.2998 12.7103L12.5298 19.5003C12.4628 19.5754 12.3813 19.6362 12.2902 19.6792C12.1992 19.7221 12.1004 19.7463 11.9998 19.7503ZM8.2098 5.7503C7.75563 5.74699 7.3053 5.83366 6.88479 6.00529C6.46429 6.17693 6.08194 6.43013 5.7598 6.7503C5.11067 7.40245 4.74625 8.28515 4.74625 9.2053C4.74625 10.1254 5.11067 11.0081 5.7598 11.6603L11.9998 17.9403L18.2298 11.6803C18.5524 11.358 18.8084 10.9753 18.983 10.554C19.1576 10.1328 19.2475 9.68131 19.2475 9.2253C19.2475 8.76929 19.1576 8.31776 18.983 7.89651C18.8084 7.47527 18.5524 7.09257 18.2298 6.7703C17.9102 6.44953 17.5297 6.19584 17.1107 6.02411C16.6917 5.85239 16.2426 5.7661 15.7898 5.7703C15.3356 5.76699 14.8853 5.85366 14.4648 6.02529C14.0443 6.19693 13.6619 6.45013 13.3398 6.7703L12.5298 7.5803C12.3867 7.71605 12.197 7.79173 11.9998 7.79173C11.8026 7.79173 11.6129 7.71605 11.4698 7.5803L10.6598 6.7703C10.3393 6.44652 9.9577 6.18963 9.53712 6.01453C9.11654 5.83943 8.66537 5.74961 8.2098 5.7503Z" fill="#005AA3"/>
</svg>
