<svg width="22" height="16" viewBox="0 0 22 16" fill="none" xmlns="http://www.w3.org/2000/svg">
<path d="M21.3594 2.66304C21.2356 2.20173 20.9927 1.7811 20.6549 1.44337C20.3172 1.10563 19.8966 0.862663 19.4352 0.738852C17.7396 0.283689 10.9317 0.283691 10.9317 0.283691C10.9317 0.283691 4.12379 0.283689 2.42621 0.738852C1.96544 0.863741 1.54538 1.10707 1.20781 1.44464C0.870237 1.78221 0.626918 2.20227 0.502029 2.66304C0.0468664 4.36062 0.046875 7.9023 0.046875 7.9023C0.046875 7.9023 0.0468664 11.444 0.502029 13.1416C0.626918 13.6023 0.870237 14.0224 1.20781 14.36C1.54538 14.6975 1.96544 14.9409 2.42621 15.0657C4.12379 15.5209 10.9317 15.5209 10.9317 15.5209C10.9317 15.5209 17.7377 15.5209 19.4352 15.0657C19.8966 14.9419 20.3172 14.699 20.6549 14.3612C20.9927 14.0235 21.2356 13.6029 21.3594 13.1416C21.8146 11.444 21.8146 7.9023 21.8146 7.9023C21.8146 7.9023 21.8146 4.36062 21.3594 2.66304ZM8.75356 11.1666V4.63802L14.4187 7.9023L8.75356 11.1666Z" fill="#005AA3"/>
</svg>
