<svg width="27" height="26" viewBox="0 0 27 26" fill="none" xmlns="http://www.w3.org/2000/svg">
<path d="M0.280273 25.9395L2.10633 19.2738C0.693624 16.8208 0.129607 13.9702 0.501718 11.1641C0.873829 8.35788 2.16127 5.75284 4.16448 3.75278C6.16769 1.75272 8.77475 0.469365 11.5815 0.101665C14.3883 -0.266034 17.2379 0.302464 19.6887 1.71903C22.1395 3.13559 24.0546 5.32109 25.137 7.93671C26.2194 10.5523 26.4087 13.452 25.6755 16.1861C24.9423 18.9203 23.3277 21.3362 21.0818 23.0594C18.836 24.7825 16.0844 25.7167 13.2537 25.717C11.1064 25.7157 8.99362 25.1769 7.108 24.1497L0.280273 25.9395ZM7.41516 21.8279L7.80698 22.0697C9.4546 23.0454 11.334 23.5608 13.2488 23.562C15.6201 23.5625 17.9242 22.7749 19.7991 21.3231C21.6739 19.8713 23.0131 17.8376 23.6062 15.5417C24.1992 13.2458 24.0124 10.8179 23.0752 8.63975C22.138 6.46158 20.5034 4.65665 18.4286 3.50869C16.3537 2.36074 13.9562 1.93487 11.613 2.29803C9.2697 2.6612 7.11357 3.7928 5.48354 5.51495C3.8535 7.23709 2.842 9.45211 2.60806 11.8118C2.37412 14.1715 2.93101 16.542 4.19117 18.5506L4.43303 18.9546L3.3519 22.8993L7.41516 21.8279Z" fill="#005AA3"/>
<path fill-rule="evenodd" clip-rule="evenodd" d="M19.733 15.9117C19.6532 15.7763 19.4379 15.6965 19.1163 15.5369C18.7946 15.3772 17.2152 14.5984 16.9202 14.4896C16.6251 14.3808 16.4123 14.33 16.1946 14.6516C15.9769 14.9733 15.365 15.6965 15.1788 15.9117C14.9925 16.127 14.8015 16.1536 14.4822 15.9916C13.5395 15.613 12.6696 15.0737 11.9112 14.3977C11.2085 13.7477 10.6062 12.997 10.1239 12.1702C9.93524 11.8485 10.1021 11.6864 10.2642 11.5147C10.4262 11.343 10.5858 11.1374 10.7479 10.9512C10.8809 10.789 10.9893 10.608 11.0696 10.4143C11.1119 10.3254 11.1316 10.2275 11.127 10.1291C11.1223 10.0308 11.0935 9.93519 11.043 9.85072C10.9631 9.69109 10.3174 8.10932 10.0513 7.46597C9.78529 6.82262 9.5265 6.92421 9.32575 6.91211C9.12501 6.90002 8.92427 6.91211 8.71143 6.91211C8.54613 6.91484 8.38323 6.9522 8.23326 7.02177C8.08329 7.09134 7.94957 7.19158 7.84073 7.31602C7.48003 7.65802 7.19394 8.0709 7.0004 8.52873C6.80686 8.98656 6.71007 9.47946 6.71608 9.97648C6.71608 11.5583 7.86734 13.0868 8.02938 13.3021C8.19143 13.5173 10.2956 16.7631 13.5196 18.1538C14.1182 18.4121 14.7302 18.6381 15.3529 18.831C16.0086 19.0301 16.7017 19.074 17.3773 18.9592C17.994 18.8673 19.2783 18.1804 19.554 17.4306C19.8297 16.6809 19.8128 16.0448 19.733 15.9117Z" fill="#005AA3"/>
</svg>
