<svg width="29" height="24" viewBox="0 0 29 24" fill="none" xmlns="http://www.w3.org/2000/svg">
<path fill-rule="evenodd" clip-rule="evenodd" d="M1.92593 10.5526C9.48649 7.25842 14.5277 5.08651 17.0495 4.03684C24.2521 1.0426 25.7565 0.522603 26.7239 0.503254C27.0826 0.49628 27.4345 0.602019 27.73 0.805579C27.9374 0.98437 28.0696 1.23489 28.1001 1.50698C28.1522 1.84536 28.1668 2.18846 28.1436 2.53005C27.7542 6.64167 26.0636 16.5797 25.205 21.1726C24.8422 23.1075 24.1263 23.7678 23.4322 23.8331C21.9278 23.971 20.7717 22.8367 19.3205 21.8813C17.0374 20.3842 15.7483 19.4627 13.5328 17.9922C10.9715 16.2992 12.6331 15.3777 14.0915 13.8636C14.4737 13.467 21.1055 7.43014 21.2361 6.88353C21.2533 6.80282 21.2513 6.71919 21.2303 6.63937C21.2093 6.55956 21.1699 6.48579 21.1151 6.424C21.0358 6.37438 20.9459 6.34396 20.8527 6.33514C20.7595 6.32632 20.6655 6.33936 20.5782 6.37321C20.3509 6.42319 16.7052 8.83293 9.64129 13.6024C8.60612 14.3135 7.66851 14.6602 6.82845 14.6424C5.90212 14.6206 4.12202 14.1176 2.79662 13.675C1.17374 13.1477 -0.10569 12.8696 -0.00410899 11.982C0.0555499 11.5176 0.698894 11.0411 1.92593 10.5526Z" fill="#005AA3"/>
</svg>
