<svg width="12" height="12" viewBox="0 0 12 12" fill="none" xmlns="http://www.w3.org/2000/svg">
<path d="M1.00294 2.27083C0.952498 1.55618 1.55765 1 2.27261 1H3.80303C4.17003 1 4.50103 1.22113 4.64219 1.5606L5.28215 3.09973C5.43805 3.47466 5.3274 3.90772 5.0109 4.16146L4.61197 4.48127C4.43394 4.62399 4.37341 4.87009 4.47897 5.0724C5.02145 6.11205 5.8232 6.9944 6.7982 7.63335C7.004 7.7682 7.27585 7.71455 7.4294 7.52225L7.8451 7.0015C8.0983 6.68435 8.53045 6.5735 8.9046 6.7297L10.4405 7.371C10.7793 7.51245 11 7.84415 11 8.2119V9.75C11 10.4664 10.4244 11.0478 9.7113 10.9971C5.15105 10.6726 1.32623 6.85085 1.00294 2.27083Z" fill="#2C2C2C"/>
</svg>
