<svg width="34" height="34" viewBox="0 0 34 34" fill="none" xmlns="http://www.w3.org/2000/svg">
<g clip-path="url(#clip0_56_9075)">
<path d="M17 34C26.3888 34 34 26.3888 34 17C34 7.61116 26.3888 0 17 0C7.61116 0 0 7.61116 0 17C0 26.3888 7.61116 34 17 34Z" fill="#F0F4FB"/>
<path fill-rule="evenodd" clip-rule="evenodd" d="M7.79788 16.7076C12.7413 14.5538 16.0375 13.1337 17.6863 12.4473C22.3957 10.4896 23.3794 10.1496 24.0119 10.1369C24.2465 10.1324 24.4766 10.2015 24.6698 10.3346C24.8054 10.4515 24.8918 10.6153 24.9117 10.7932C24.9458 11.0145 24.9553 11.2388 24.9402 11.4621C24.6856 14.1505 23.5802 20.6485 23.0188 23.6515C22.7816 24.9167 22.3135 25.3484 21.8596 25.3911C20.876 25.4812 20.1201 24.7395 19.1713 24.1149C17.6784 23.136 16.8355 22.5335 15.387 21.572C13.7123 20.465 14.7987 19.8625 15.7523 18.8726C16.0022 18.6132 20.3383 14.666 20.4237 14.3087C20.435 14.2559 20.4337 14.2012 20.42 14.149C20.4062 14.0968 20.3804 14.0486 20.3447 14.0082C20.2928 13.9757 20.234 13.9559 20.1731 13.9501C20.1121 13.9443 20.0507 13.9528 19.9936 13.975C19.8449 14.0077 17.4613 15.5833 12.8425 18.7018C12.1657 19.1667 11.5526 19.3934 11.0034 19.3818C10.3977 19.3675 9.23378 19.0386 8.36717 18.7492C7.30606 18.4045 6.46951 18.2226 6.53593 17.6422C6.57493 17.3386 6.99558 17.0271 7.79788 16.7076Z" fill="#005AA3"/>
</g>
<defs>
<clipPath id="clip0_56_9075">
<rect width="34" height="34" fill="white"/>
</clipPath>
</defs>
</svg>
