<svg width="30" height="30" viewBox="0 0 30 30" fill="none" xmlns="http://www.w3.org/2000/svg">
<g clip-path="url(#clip0_56_1212)">
<path fill-rule="evenodd" clip-rule="evenodd" d="M6.88042 14.7417C11.2423 12.8412 14.1507 11.5882 15.6055 10.9826C19.7609 9.2552 20.6288 8.9552 21.1869 8.94403C21.3939 8.94001 21.5969 9.00101 21.7674 9.11845C21.887 9.2216 21.9633 9.36613 21.9809 9.5231C22.0109 9.71833 22.0194 9.91627 22.006 10.1133C21.7814 12.4854 20.806 18.2189 20.3107 20.8687C20.1014 21.985 19.6883 22.3659 19.2879 22.4036C18.42 22.4831 17.753 21.8287 16.9158 21.2775C15.5986 20.4138 14.8548 19.8822 13.5767 19.0338C12.099 18.0571 13.0576 17.5254 13.899 16.6519C14.1195 16.4231 17.9455 12.9403 18.0209 12.625C18.0308 12.5784 18.0297 12.5301 18.0176 12.4841C18.0054 12.4381 17.9827 12.3955 17.9511 12.3598C17.9053 12.3312 17.8535 12.3137 17.7997 12.3086C17.7459 12.3035 17.6917 12.311 17.6414 12.3305C17.5102 12.3594 15.4069 13.7496 11.3316 16.5012C10.7344 16.9115 10.1934 17.1115 9.7088 17.1012C9.17438 17.0887 8.14739 16.7985 7.38274 16.5431C6.44646 16.2389 5.70833 16.0785 5.76694 15.5664C5.80135 15.2985 6.17251 15.0236 6.88042 14.7417Z" fill="white"/>
</g>
<defs>
<clipPath id="clip0_56_1212">
<rect width="30" height="30" fill="white"/>
</clipPath>
</defs>
</svg>
