<svg width="34" height="34" viewBox="0 0 34 34" fill="none" xmlns="http://www.w3.org/2000/svg">
<g clip-path="url(#clip0_56_9071)">
<path d="M17 34C26.3888 34 34 26.3888 34 17C34 7.61116 26.3888 0 17 0C7.61116 0 0 7.61116 0 17C0 26.3888 7.61116 34 17 34Z" fill="#F0F4FB"/>
<path d="M17.623 23.2688C11.0317 23.2688 7.27435 18.7491 7.11621 11.228H10.4166C10.5257 16.7471 12.9595 19.086 14.8872 19.5683V11.228H17.9978V15.988C19.8955 15.784 21.9023 13.6159 22.5759 11.228H25.6865C25.1678 14.1678 22.9982 16.3375 21.4563 17.2294C22.6622 17.8283 23.7273 18.6763 24.5811 19.7174C25.4349 20.7585 26.058 21.9689 26.4092 23.2688H22.9871C22.2517 20.9789 20.4189 19.2077 17.9978 18.9674V23.2688H17.623Z" fill="#005AA3"/>
</g>
<defs>
<clipPath id="clip0_56_9071">
<rect width="34" height="34" fill="white"/>
</clipPath>
</defs>
</svg>
