<svg width="34" height="34" viewBox="0 0 34 34" fill="none" xmlns="http://www.w3.org/2000/svg">
<g clip-path="url(#clip0_56_1217)">
<path d="M8.68359 25.4603L9.87756 21.102C8.95386 19.4981 8.58508 17.6343 8.82838 15.7995C9.07169 13.9647 9.91348 12.2614 11.2233 10.9536C12.5331 9.64592 14.2377 8.8068 16.0729 8.56638C17.908 8.32596 19.7713 8.69767 21.3737 9.62388C22.9762 10.5501 24.2283 11.9791 24.9361 13.6893C25.6438 15.3995 25.7675 17.2954 25.2882 19.0831C24.8088 20.8709 23.753 22.4505 22.2846 23.5772C20.8162 24.7039 19.0171 25.3146 17.1662 25.3149C15.7622 25.314 14.3808 24.9618 13.1479 24.2901L8.68359 25.4603ZM13.3487 22.772L13.6049 22.9301C14.6822 23.5681 15.911 23.9051 17.163 23.9058C18.7135 23.9061 20.22 23.3912 21.4459 22.4419C22.6718 21.4927 23.5474 20.1629 23.9351 18.6618C24.3229 17.1606 24.2008 15.5732 23.588 14.149C22.9752 12.7248 21.9064 11.5446 20.5498 10.7941C19.1932 10.0435 17.6256 9.76501 16.0934 10.0025C14.5613 10.2399 13.1515 10.9798 12.0857 12.1058C11.0199 13.2318 10.3586 14.6801 10.2056 16.223C10.0526 17.7659 10.4168 19.3158 11.2407 20.6292L11.3989 20.8933L10.692 23.4725L13.3487 22.772Z" fill="white"/>
<path fill-rule="evenodd" clip-rule="evenodd" d="M21.4028 18.904C21.3507 18.8154 21.2099 18.7633 20.9996 18.6589C20.7893 18.5545 19.7566 18.0453 19.5637 17.9741C19.3708 17.903 19.2316 17.8698 19.0893 18.0801C18.9469 18.2904 18.5468 18.7633 18.4251 18.904C18.3033 19.0447 18.1784 19.0621 17.9696 18.9562C17.3532 18.7087 16.7845 18.356 16.2886 17.914C15.8291 17.489 15.4353 16.9982 15.12 16.4576C14.9966 16.2473 15.1057 16.1413 15.2117 16.029C15.3176 15.9167 15.422 15.7823 15.528 15.6606C15.6149 15.5545 15.6858 15.4362 15.7383 15.3095C15.766 15.2514 15.7789 15.1874 15.7758 15.1231C15.7728 15.0588 15.7539 14.9963 15.7209 14.941C15.6687 14.8367 15.2465 13.8024 15.0725 13.3818C14.8986 12.9611 14.7294 13.0275 14.5981 13.0196C14.4668 13.0117 14.3356 13.0196 14.1964 13.0196C14.0883 13.0214 13.9818 13.0458 13.8838 13.0913C13.7857 13.1368 13.6983 13.2024 13.6271 13.2837C13.3913 13.5073 13.2042 13.7773 13.0777 14.0766C12.9511 14.376 12.8878 14.6983 12.8918 15.0233C12.8918 16.0575 13.6445 17.0569 13.7505 17.1977C13.8564 17.3384 15.2322 19.4606 17.3402 20.37C17.7316 20.5388 18.1318 20.6866 18.5389 20.8127C18.9677 20.9429 19.4208 20.9716 19.8626 20.8966C20.2658 20.8365 21.1055 20.3873 21.2858 19.8971C21.4661 19.4069 21.455 18.991 21.4028 18.904Z" fill="white"/>
</g>
<defs>
<clipPath id="clip0_56_1217">
<rect width="34" height="34" fill="white"/>
</clipPath>
</defs>
</svg>
