<svg width="34" height="34" viewBox="0 0 34 34" fill="none" xmlns="http://www.w3.org/2000/svg">
<g clip-path="url(#clip0_56_9061)">
<path d="M17 34C26.3888 34 34 26.3888 34 17C34 7.61116 26.3888 0 17 0C7.61116 0 0 7.61116 0 17C0 26.3888 7.61116 34 17 34Z" fill="#F0F4FB"/>
<path d="M25.3858 12.6796C25.2856 12.3061 25.0889 11.9656 24.8155 11.6922C24.5421 11.4188 24.2016 11.2221 23.8282 11.1219C22.4555 10.7534 16.9443 10.7534 16.9443 10.7534C16.9443 10.7534 11.4332 10.7534 10.0589 11.1219C9.68593 11.223 9.34589 11.42 9.07262 11.6932C8.79934 11.9665 8.60237 12.3066 8.50127 12.6796C8.13281 14.0538 8.13281 16.9209 8.13281 16.9209C8.13281 16.9209 8.13281 19.7879 8.50127 21.1622C8.60237 21.5352 8.79934 21.8752 9.07262 22.1485C9.34589 22.4218 9.68593 22.6187 10.0589 22.7198C11.4332 23.0883 16.9443 23.0883 16.9443 23.0883C16.9443 23.0883 22.4539 23.0883 23.8282 22.7198C24.2016 22.6196 24.5421 22.4229 24.8155 22.1495C25.0889 21.8761 25.2856 21.5356 25.3858 21.1622C25.7543 19.7879 25.7543 16.9209 25.7543 16.9209C25.7543 16.9209 25.7543 14.0538 25.3858 12.6796ZM15.1811 19.5634V14.2783L19.7671 16.9209L15.1811 19.5634Z" fill="#005AA3"/>
</g>
<defs>
<clipPath id="clip0_56_9061">
<rect width="34" height="34" fill="white"/>
</clipPath>
</defs>
</svg>
