<svg width="12" height="12" viewBox="0 0 12 12" fill="none" xmlns="http://www.w3.org/2000/svg">
<path d="M5.82296 7.573L2.92696 4.677C2.89194 4.64207 2.86807 4.59753 2.85837 4.54902C2.84867 4.50051 2.85358 4.45022 2.87248 4.4045C2.89137 4.35878 2.92341 4.3197 2.96452 4.2922C3.00564 4.2647 3.05399 4.25001 3.10346 4.25H8.89646C8.94593 4.25001 8.99428 4.2647 9.0354 4.2922C9.07652 4.3197 9.10855 4.35878 9.12745 4.4045C9.14635 4.45022 9.15126 4.50051 9.14156 4.54902C9.13186 4.59753 9.10799 4.64207 9.07296 4.677L6.17646 7.573C6.12958 7.61987 6.066 7.6462 5.99971 7.6462C5.93342 7.6462 5.86984 7.61987 5.82296 7.573Z" fill="#2C2C2C"/>
</svg>
