<svg width="14" height="14" viewBox="0 0 14 14" fill="none" xmlns="http://www.w3.org/2000/svg">
<path d="M2.33366 4.66683C2.97799 4.66683 3.50033 4.1445 3.50033 3.50016C3.50033 2.85583 2.97799 2.3335 2.33366 2.3335C1.68933 2.3335 1.16699 2.85583 1.16699 3.50016C1.16699 4.1445 1.68933 4.66683 2.33366 4.66683Z" fill="white"/>
<path d="M2.33366 8.16683C2.97799 8.16683 3.50033 7.64451 3.50033 7.00016C3.50033 6.35581 2.97799 5.8335 2.33366 5.8335C1.68933 5.8335 1.16699 6.35581 1.16699 7.00016C1.16699 7.64451 1.68933 8.16683 2.33366 8.16683Z" fill="white"/>
<path d="M3.50033 10.5002C3.50033 11.1445 2.97799 11.6668 2.33366 11.6668C1.68933 11.6668 1.16699 11.1445 1.16699 10.5002C1.16699 9.85581 1.68933 9.3335 2.33366 9.3335C2.97799 9.3335 3.50033 9.85581 3.50033 10.5002Z" fill="white"/>
<path d="M12.2503 4.375C12.5725 4.375 12.8337 4.11383 12.8337 3.79167V3.20833C12.8337 2.88617 12.5725 2.625 12.2503 2.625H5.25033C4.92816 2.625 4.66699 2.88617 4.66699 3.20833V3.79167C4.66699 4.11383 4.92816 4.375 5.25033 4.375H12.2503Z" fill="white"/>
<path d="M12.8337 7.29167C12.8337 7.61384 12.5725 7.875 12.2503 7.875H5.25033C4.92816 7.875 4.66699 7.61384 4.66699 7.29167V6.70833C4.66699 6.38616 4.92816 6.125 5.25033 6.125H12.2503C12.5725 6.125 12.8337 6.38616 12.8337 6.70833V7.29167Z" fill="white"/>
<path d="M12.2503 11.375C12.5725 11.375 12.8337 11.1138 12.8337 10.7917V10.2083C12.8337 9.88616 12.5725 9.625 12.2503 9.625H5.25033C4.92816 9.625 4.66699 9.88616 4.66699 10.2083V10.7917C4.66699 11.1138 4.92816 11.375 5.25033 11.375H12.2503Z" fill="white"/>
</svg>
