<svg width="16" height="16" viewBox="0 0 16 16" fill="none" xmlns="http://www.w3.org/2000/svg">
<path d="M7.76395 10.0972L3.90262 6.23584C3.85592 6.18926 3.82409 6.12987 3.81116 6.06519C3.79823 6.00052 3.80477 5.93346 3.82997 5.8725C3.85516 5.81155 3.89788 5.75944 3.9527 5.72277C4.00752 5.6861 4.07199 5.66652 4.13795 5.6665H11.8619C11.9279 5.66652 11.9924 5.6861 12.0472 5.72277C12.102 5.75944 12.1447 5.81155 12.1699 5.8725C12.1951 5.93346 12.2017 6.00052 12.1887 6.06519C12.1758 6.12987 12.144 6.18926 12.0973 6.23584L8.23528 10.0972C8.17277 10.1597 8.088 10.1948 7.99962 10.1948C7.91123 10.1948 7.82646 10.1597 7.76395 10.0972Z" fill="white"/>
</svg>
