<svg width="57" height="38" viewBox="0 0 57 38" fill="none" xmlns="http://www.w3.org/2000/svg">
<circle cx="38" cy="19" r="19" fill="url(#paint0_linear_4145_20)"/>
<circle cx="19" cy="19" r="19" fill="#005AA3"/>
<path d="M13.938 26.145C14.6709 26.759 15.5388 27.1905 16.4705 27.4042C16.5597 27.4334 16.6197 27.3167 16.5597 27.2584C14.5639 25.3542 15.6605 23.2934 16.4705 22.3642C17.048 21.7009 17.8705 20.6084 17.8105 19.1434C17.8105 18.9967 17.9605 18.8792 18.0789 18.9675C19.2114 19.5534 19.9855 20.8425 20.1939 21.8967C20.5222 21.575 20.6414 21.0767 20.6414 20.6375C20.6414 20.4909 20.8197 20.3734 20.9689 20.4909C22.0414 21.4575 23.888 24.7384 20.9089 27.3159C20.8497 27.375 20.9089 27.4925 20.9689 27.4634C21.8722 27.2266 22.7217 26.8186 23.4714 26.2617C28.3272 22.5117 25.1689 15.8617 23.113 13.665C22.8455 13.4009 22.3689 13.5767 22.3689 13.9575C22.3389 14.7492 22.1005 15.6275 21.4755 16.2134C20.9989 14.2217 19.4105 11.9592 17.1464 10.8459C16.8489 10.6992 16.4914 10.9334 16.5214 11.2559C16.5797 13.9809 14.8022 15.7159 13.253 17.9717C11.8822 19.9925 10.9889 23.7134 13.938 26.145Z" fill="white"/>
<defs>
<linearGradient id="paint0_linear_4145_20" x1="38" y1="0" x2="38" y2="38" gradientUnits="userSpaceOnUse">
<stop stop-color="#DCEAF5"/>
<stop offset="1" stop-color="#DCEAF5" stop-opacity="0"/>
</linearGradient>
</defs>
</svg>
