<svg width="14" height="14" viewBox="0 0 14 14" fill="none" xmlns="http://www.w3.org/2000/svg">
<g clip-path="url(#clip0_56_307)">
<path d="M13.7372 5.19247C13.6343 4.88644 13.3694 4.66331 13.0505 4.61453L9.33853 4.04731L7.67122 0.495469C7.52903 0.192719 7.22519 0 6.89137 0C6.55734 0 6.25372 0.192719 6.11153 0.495469L4.444 4.04753L0.732031 4.61475C0.413093 4.66353 0.148187 4.88644 0.0455934 5.19269C-0.0570003 5.49894 0.0204372 5.83625 0.245968 6.06769L2.95672 8.84734L2.31469 12.7798C2.26175 13.1053 2.39978 13.4326 2.66906 13.6229C2.93812 13.8132 3.29337 13.8324 3.58278 13.6728L6.89159 11.8429L10.2004 13.6728C10.331 13.7449 10.4747 13.7804 10.6178 13.7804C10.7919 13.7804 10.966 13.7274 11.1141 13.6229C11.3834 13.4328 11.5212 13.1055 11.4683 12.7798L10.8262 8.84734L13.5372 6.06769C13.7623 5.83625 13.8397 5.49894 13.7372 5.19247Z" fill="#FFD600"/>
</g>
<defs>
<clipPath id="clip0_56_307">
<rect width="14" height="14" fill="white"/>
</clipPath>
</defs>
</svg>
