<svg width="14" height="14" viewBox="0 0 14 14" fill="none" xmlns="http://www.w3.org/2000/svg">
<g clip-path="url(#clip0_56_157)">
<path d="M7.26058 0.645079C7.09631 0.562968 6.90305 0.562968 6.73878 0.645079L0.905469 3.56175C0.707847 3.66056 0.583008 3.86255 0.583008 4.0835C0.583008 4.30445 0.707847 4.50644 0.905469 4.60525L6.73878 7.5219C6.90305 7.60403 7.09631 7.60403 7.26058 7.5219L13.0939 4.60525C13.2915 4.50644 13.4163 4.30445 13.4163 4.0835C13.4163 3.86255 13.2915 3.66056 13.0939 3.56175L7.26058 0.645079Z" fill="white"/>
<path d="M0.644719 9.65561C0.788796 9.36745 1.13919 9.25066 1.42734 9.39469L6.99979 12.1809L12.5723 9.39469C12.8604 9.25066 13.2108 9.36745 13.3549 9.65561C13.4989 9.94372 13.3822 10.2941 13.094 10.4382L7.26066 13.3549C7.09645 13.437 6.90313 13.437 6.73892 13.3549L0.905597 10.4382C0.617442 10.2941 0.500643 9.94372 0.644719 9.65561Z" fill="white"/>
<path d="M1.42734 6.47818C1.13919 6.33416 0.788796 6.45094 0.644719 6.73911C0.500643 7.02722 0.617442 7.37763 0.905597 7.52171L6.73892 10.4384C6.90313 10.5205 7.09645 10.5205 7.26066 10.4384L13.094 7.52171C13.3822 7.37763 13.4989 7.02722 13.3549 6.73911C13.2108 6.45094 12.8604 6.33416 12.5723 6.47818L6.99979 9.26442L1.42734 6.47818Z" fill="white"/>
</g>
<defs>
<clipPath id="clip0_56_157">
<rect width="14" height="14" fill="white"/>
</clipPath>
</defs>
</svg>
