<svg width="57" height="38" viewBox="0 0 57 38" fill="none" xmlns="http://www.w3.org/2000/svg">
<circle cx="38" cy="19" r="19" fill="url(#paint0_linear_4145_21)"/>
<circle cx="19" cy="19" r="19" fill="#005AA3"/>
<path d="M24.4168 12.4253L20.2585 10.867C19.5668 10.6086 18.4335 10.6086 17.7418 10.867L13.5835 12.4253C12.6251 12.7836 11.8418 13.917 11.8418 14.9336V21.1253C11.8418 22.1086 12.4918 23.4003 13.2835 23.992L16.8668 26.667C18.0418 27.5503 19.9752 27.5503 21.1502 26.667L24.7335 23.992C25.5252 23.4003 26.1752 22.1086 26.1752 21.1253V14.9336C26.1585 13.917 25.3752 12.7836 24.4168 12.4253ZM18.9418 14.8586C19.9252 14.8586 20.7252 15.6586 20.7252 16.642C20.7252 17.6086 19.9668 18.3836 19.0085 18.417H18.9918H18.9752C18.9585 18.417 18.9418 18.417 18.9252 18.417C17.9252 18.3836 17.1751 17.6086 17.1751 16.642C17.1668 15.6586 17.9668 14.8586 18.9418 14.8586ZM20.8252 22.6336C20.3168 22.967 19.6585 23.142 19.0002 23.142C18.3418 23.142 17.6752 22.9753 17.1751 22.6336C16.7001 22.317 16.4418 21.8836 16.4335 21.4086C16.4335 20.942 16.7001 20.492 17.1751 20.1753C18.1835 19.5086 19.8252 19.5086 20.8335 20.1753C21.3085 20.492 21.5752 20.9253 21.5752 21.4003C21.5668 21.867 21.3002 22.317 20.8252 22.6336Z" fill="white"/>
<defs>
<linearGradient id="paint0_linear_4145_21" x1="38" y1="0" x2="38" y2="38" gradientUnits="userSpaceOnUse">
<stop stop-color="#DCEAF5"/>
<stop offset="1" stop-color="#DCEAF5" stop-opacity="0"/>
</linearGradient>
</defs>
</svg>
