<svg width="20" height="20" viewBox="0 0 20 20" fill="none" xmlns="http://www.w3.org/2000/svg">
<path d="M9.99999 16.4582C9.83432 16.458 9.6754 16.3921 9.55832 16.2749L3.91666 10.6165C3.15321 9.83763 2.72559 8.79046 2.72559 7.69985C2.72559 6.60921 3.15321 5.56205 3.91666 4.78318C4.69024 4.00968 5.73938 3.57515 6.83333 3.57515C7.92727 3.57515 8.9764 4.00968 9.74999 4.78318L9.99999 4.99985L10.2333 4.76651C10.6158 4.37985 11.0714 4.07314 11.5736 3.86426C12.0757 3.65538 12.6145 3.5485 13.1583 3.54985C13.7017 3.54741 14.24 3.65298 14.7422 3.86041C15.2442 4.06785 15.7002 4.37301 16.0833 4.75818C16.8467 5.53705 17.2744 6.58421 17.2744 7.67485C17.2744 8.76546 16.8467 9.81263 16.0833 10.5915L10.4417 16.2499C10.3858 16.3125 10.3179 16.3631 10.242 16.399C10.1662 16.4347 10.0838 16.4549 9.99999 16.4582ZM6.84166 4.79151C6.46319 4.78875 6.08791 4.86098 5.73749 5.004C5.38707 5.14704 5.06844 5.35804 4.79999 5.62485C4.25905 6.1683 3.95537 6.90389 3.95537 7.67068C3.95537 8.43746 4.25905 9.17305 4.79999 9.71655L9.99999 14.9499L15.1917 9.73321C15.4605 9.46463 15.6738 9.14571 15.8193 8.79463C15.9648 8.44363 16.0397 8.06735 16.0397 7.68735C16.0397 7.30734 15.9648 6.93106 15.8193 6.58002C15.6738 6.22899 15.4605 5.91007 15.1917 5.64151C14.9253 5.3742 14.6082 5.1628 14.2591 5.01969C13.9099 4.87659 13.5357 4.80468 13.1583 4.80818C12.7798 4.80542 12.4046 4.87765 12.0542 5.02067C11.7037 5.1637 11.3851 5.3747 11.1167 5.64151L10.4417 6.31651C10.3224 6.42964 10.1643 6.4927 9.99999 6.4927C9.83565 6.4927 9.67757 6.42964 9.55832 6.31651L8.88332 5.64151C8.61624 5.3717 8.29824 5.15762 7.94776 5.0117C7.59728 4.86579 7.2213 4.79094 6.84166 4.79151Z" fill="white"/>
</svg>
