<svg width="57" height="38" viewBox="0 0 57 38" fill="none" xmlns="http://www.w3.org/2000/svg">
<circle cx="38" cy="19" r="19" fill="url(#paint0_linear_4145_24)"/>
<circle cx="19" cy="19" r="19" fill="#005AA3"/>
<g clip-path="url(#clip0_4145_24)">
<path d="M25.8305 23.5635L23.7419 20.7641H24.4776C24.7169 20.7641 24.8062 20.6418 24.8381 20.5689C24.87 20.4959 24.9005 20.3446 24.7462 20.1501L22.3645 17.1468H23.3638C23.6053 17.1468 23.6914 17.0251 23.7212 16.9525C23.7511 16.8799 23.7766 16.7302 23.6124 16.542L21.3124 13.9048H21.8693C22.1107 13.9048 22.1968 13.7831 22.2266 13.7106C22.2565 13.6381 22.282 13.4883 22.1178 13.3L19.4065 10.1914C19.2989 10.068 19.1545 10 18.9998 10C18.8452 10 18.7008 10.068 18.5931 10.1914L15.8818 13.3001C15.7177 13.4883 15.7432 13.6381 15.773 13.7107C15.8028 13.7832 15.8889 13.9049 16.1304 13.9049H16.6873L14.3873 16.542C14.2231 16.7302 14.2486 16.88 14.2785 16.9526C14.3083 17.0251 14.3943 17.1468 14.6358 17.1468H15.6352L13.2534 20.1501C13.0992 20.3447 13.1296 20.496 13.1616 20.5689C13.1935 20.6418 13.2827 20.7641 13.5221 20.7641H14.2578L12.1692 23.5636C12.0213 23.7617 12.055 23.9139 12.0882 23.987C12.1215 24.0601 12.2128 24.1827 12.4508 24.1827H25.5489C25.7869 24.1827 25.8782 24.0601 25.9115 23.987C25.9447 23.9139 25.9784 23.7617 25.8305 23.5635Z" fill="white"/>
<path d="M20.1239 24.8596H17.8766C17.634 24.8596 17.4365 25.0694 17.4365 25.3272V26.5324C17.4365 26.7902 17.634 27 17.8766 27H20.1239C20.3666 27 20.5641 26.7902 20.5641 26.5324V25.3272C20.5641 25.0694 20.3666 24.8596 20.1239 24.8596Z" fill="white"/>
</g>
<defs>
<linearGradient id="paint0_linear_4145_24" x1="38" y1="0" x2="38" y2="38" gradientUnits="userSpaceOnUse">
<stop stop-color="#DCEAF5"/>
<stop offset="1" stop-color="#DCEAF5" stop-opacity="0"/>
</linearGradient>
<clipPath id="clip0_4145_24">
<rect width="16" height="17" fill="white" transform="translate(11 10)"/>
</clipPath>
</defs>
</svg>
