<svg width="57" height="38" viewBox="0 0 57 38" fill="none" xmlns="http://www.w3.org/2000/svg">
<circle cx="38" cy="19" r="19" fill="url(#paint0_linear_4145_23)"/>
<circle cx="19" cy="19" r="19" fill="#005AA3"/>
<g clip-path="url(#clip0_4145_23)">
<path d="M20.0371 10.5132C19.5001 9.82862 18.5007 9.82862 17.9633 10.5132C15.6892 13.4103 10.8936 12.5846 10.8936 16.3864C10.8936 20.9952 14.4721 27.6851 19.0004 28C23.5288 27.6851 27.1073 20.9952 27.1073 16.3864C27.1073 12.5846 22.3116 13.4103 20.0371 10.5132ZM21.3764 20.0137L19.1353 24.5805C19.0429 24.7693 18.8295 24.8645 18.6272 24.8085C18.425 24.7518 18.2909 24.5238 18.3087 24.3152L18.5598 21.2919H17.1182C16.9445 21.2919 16.7814 21.2471 16.6775 21.1079C16.5732 20.9687 16.5415 20.8076 16.5907 20.6411L18.1335 15.3893C18.2025 15.1557 18.417 14.9459 18.6609 14.9459H20.4496C20.6336 14.9459 20.8053 15.0958 20.9073 15.2489C21.0092 15.4024 21.0278 15.6697 20.9568 15.8395L19.5362 19.3089H20.8831C21.073 19.3089 21.2495 19.3644 21.3503 19.5254C21.451 19.6865 21.4601 19.8435 21.3764 20.0137Z" fill="white"/>
</g>
<defs>
<linearGradient id="paint0_linear_4145_23" x1="38" y1="0" x2="38" y2="38" gradientUnits="userSpaceOnUse">
<stop stop-color="#DCEAF5"/>
<stop offset="1" stop-color="#DCEAF5" stop-opacity="0"/>
</linearGradient>
<clipPath id="clip0_4145_23">
<rect width="18" height="18" fill="white" transform="translate(10 10)"/>
</clipPath>
</defs>
</svg>
