<svg width="54" height="54" viewBox="0 0 54 54" fill="none" xmlns="http://www.w3.org/2000/svg">
<rect width="54" height="54" rx="10" fill="white"/>
<path fill-rule="evenodd" clip-rule="evenodd" d="M18.1943 34.0384C18.1943 35.7493 19.5863 37.1416 21.2975 37.1416C23.0087 37.1416 24.4007 35.7493 24.4007 34.0384C24.4007 32.3276 23.0087 30.9353 21.2975 30.9353C19.5863 30.9353 18.1943 32.3272 18.1943 34.0384ZM23.3807 34.0384C23.3807 35.187 22.446 36.1216 21.2975 36.1216C20.149 36.1216 19.2143 35.187 19.2143 34.0384C19.2143 32.8899 20.149 31.9553 21.2975 31.9553C22.446 31.9553 23.3807 32.8899 23.3807 34.0384ZM42.674 22.4499C42.624 22.4053 42.5658 22.3709 42.5025 22.3489C42.4393 22.3268 42.3724 22.3173 42.3055 22.3211C42.2386 22.3249 42.1731 22.3418 42.1128 22.3709C42.0525 22.4 41.9985 22.4407 41.9539 22.4907L34.5463 30.7877L30.7329 26.9743C30.6858 26.9255 30.6295 26.8867 30.5673 26.86C30.5051 26.8332 30.4382 26.8192 30.3705 26.8186C30.3027 26.818 30.2356 26.8309 30.1729 26.8565C30.1102 26.8822 30.0533 26.9201 30.0054 26.9679C29.9575 27.0158 29.9196 27.0728 29.894 27.1354C29.8684 27.1981 29.8555 27.2653 29.856 27.333C29.8566 27.4007 29.8707 27.4676 29.8974 27.5299C29.9242 27.5921 29.963 27.6484 30.0117 27.6954L34.207 31.8903C34.3029 31.9862 34.4324 32.0396 34.5677 32.0396L34.582 32.0392C34.6514 32.0373 34.7196 32.0212 34.7826 31.992C34.8456 31.9627 34.9019 31.921 34.9482 31.8692L42.7151 23.1697C42.8051 23.0687 42.8513 22.9362 42.8435 22.8013C42.8358 22.6663 42.7749 22.5399 42.674 22.4499Z" fill="#005AA3"/>
<path fill-rule="evenodd" clip-rule="evenodd" d="M34.744 33.3154C34.6088 33.3154 34.4791 33.3691 34.3834 33.4648C34.2878 33.5604 34.234 33.6901 34.234 33.8254V38.9006H16.1753V15.1006H34.234V25.7857C34.234 25.921 34.2878 26.0507 34.3834 26.1464C34.4791 26.242 34.6088 26.2957 34.744 26.2957C34.8793 26.2957 35.009 26.242 35.1047 26.1464C35.2003 26.0507 35.254 25.921 35.254 25.7857V14.5906C35.254 14.4553 35.2003 14.3256 35.1047 14.2299C35.009 14.1343 34.8793 14.0806 34.744 14.0806H15.6653C15.53 14.0806 15.4003 14.1343 15.3046 14.2299C15.209 14.3256 15.1553 14.4553 15.1553 14.5906V39.4106C15.1553 39.5458 15.209 39.6755 15.3046 39.7712C15.4003 39.8668 15.53 39.9206 15.6653 39.9206H34.744C34.8793 39.9206 35.009 39.8668 35.1047 39.7712C35.2003 39.6755 35.254 39.5458 35.254 39.4106V33.8254C35.254 33.6901 35.2003 33.5604 35.1047 33.4648C35.009 33.3691 34.8793 33.3154 34.744 33.3154Z" fill="#005AA3"/>
<path fill-rule="evenodd" clip-rule="evenodd" d="M28.7826 20.957C28.9179 20.957 29.0476 20.9033 29.1432 20.8076C29.2389 20.712 29.2926 20.5823 29.2926 20.447C29.2926 20.3118 29.2389 20.182 29.1432 20.0864C29.0476 19.9907 28.9179 19.937 28.7826 19.937H18.5364C18.4011 19.937 18.2714 19.9907 18.1757 20.0864C18.0801 20.182 18.0264 20.3118 18.0264 20.447C18.0264 20.5823 18.0801 20.712 18.1757 20.8076C18.2714 20.9033 18.4011 20.957 18.5364 20.957H28.7826ZM29.4181 24.984C29.4181 24.8487 29.3643 24.719 29.2687 24.6233C29.173 24.5277 29.0433 24.474 28.9081 24.474H18.6645C18.5293 24.474 18.3996 24.5277 18.3039 24.6233C18.2083 24.719 18.1545 24.8487 18.1545 24.984C18.1545 25.1192 18.2083 25.249 18.3039 25.3446C18.3996 25.4402 18.5293 25.494 18.6645 25.494H28.9081C29.0433 25.494 29.173 25.4402 29.2687 25.3446C29.3643 25.249 29.4181 25.1192 29.4181 24.984Z" fill="#005AA3"/>
</svg>
