<svg width="54" height="54" viewBox="0 0 54 54" fill="none" xmlns="http://www.w3.org/2000/svg">
<rect width="54" height="54" rx="10" fill="white"/>
<path fill-rule="evenodd" clip-rule="evenodd" d="M41.3335 36.8455L38.6071 25.1468C38.5917 25.0813 38.5636 25.0195 38.5243 24.9649C38.485 24.9103 38.4353 24.864 38.378 24.8287C38.3208 24.7934 38.2571 24.7697 38.1907 24.7591C38.1243 24.7484 38.0564 24.751 37.991 24.7667C36.7711 25.0512 35.5439 25.3038 34.3108 25.5242L38.2824 21.7175C38.3513 21.6515 38.4003 21.5674 38.4238 21.4749C38.4473 21.3824 38.4443 21.2851 38.4153 21.1942C38.3862 21.1032 38.3322 21.0223 38.2595 20.9605C38.1867 20.8987 38.098 20.8586 38.0036 20.8448L30.6626 19.7656L27.3908 13.1067C27.3048 12.9323 27.1174 12.8252 26.9328 12.8218C26.8378 12.8218 26.7447 12.8483 26.6639 12.8984C26.5832 12.9485 26.5181 13.0202 26.4759 13.1053L23.1809 19.753L15.8366 20.8077C15.7408 20.8214 15.6508 20.8621 15.5773 20.9251C15.5037 20.9881 15.4496 21.0706 15.4212 21.1632C15.3929 21.2558 15.3915 21.3545 15.4172 21.4479C15.4428 21.5412 15.4946 21.6253 15.5663 21.6903L18.648 24.4858C15.6985 25.1879 13.2995 27.5519 13.1778 27.6737C13.1196 27.7319 13.0763 27.8033 13.0517 27.8819C13.0271 27.9605 13.0218 28.0438 13.0363 28.1248L13.6392 31.4783C13.6252 31.5421 13.6239 31.608 13.6355 31.6723C13.647 31.7366 13.6712 31.798 13.7065 31.8529L15.1392 39.8229C15.156 39.9166 15.1987 40.0037 15.2624 40.0744C15.3262 40.1451 15.4084 40.1965 15.4998 40.2229C15.5913 40.2493 15.6883 40.2496 15.7799 40.2237C15.8715 40.1978 15.954 40.1469 16.0181 40.0765C16.0481 40.0435 19.0547 36.7993 22.3615 37.0182C23.9221 37.1243 25.2369 37.502 26.6292 37.9019C28.0028 38.2963 29.4237 38.7039 31.073 38.8161C34.3356 39.0412 40.6868 37.5228 40.9554 37.4578C41.0865 37.4263 41.1998 37.3443 41.2707 37.2296C41.3415 37.1149 41.3641 36.9768 41.3335 36.8455ZM14.7224 31.7363C15.9124 30.7252 19.0146 28.8365 21.2541 29.1034C22.7172 29.2778 23.8752 29.6338 24.9952 29.9778C26.2834 30.3736 27.6155 30.783 29.3679 30.9023C32.0294 31.0852 36.7677 30.1047 38.6183 29.6899L39.3571 32.8597C37.3684 33.2762 33.5261 33.9946 31.3351 33.8481C29.7861 33.7423 28.3248 33.3656 26.7778 32.9661C25.2457 32.571 23.6613 32.1623 22.0001 32.0491C19.3195 31.8665 16.7264 33.7542 15.3113 35.0143L14.7224 31.7363ZM17.0551 21.6631L23.5916 20.7244C23.7576 20.7006 23.9014 20.5966 23.9758 20.4459L26.9308 14.4837L29.8653 20.4555C29.9394 20.6061 30.0829 20.7105 30.2492 20.7349L36.8241 21.7016L32.5357 25.8125C31.0346 26.0301 29.5182 26.1743 28.4162 26.0991C26.8883 25.9951 25.8135 25.6241 24.6759 25.2308C23.5189 24.8309 22.3221 24.4175 20.6401 24.3029C20.4131 24.2878 20.1854 24.2857 19.9581 24.2964L17.0551 21.6631ZM19.6864 25.3436C19.8156 25.329 19.8918 25.3093 20.0397 25.313C20.2161 25.3062 20.3933 25.3083 20.5707 25.3205C22.1174 25.4259 23.1986 25.7992 24.343 26.1947C25.4936 26.5921 26.6836 27.0032 28.3472 27.1164C29.5189 27.1963 31.088 27.0518 32.6309 26.8311C32.7261 26.8189 32.8515 26.7971 32.9522 26.7839C34.9483 26.4843 36.8503 26.0736 37.7295 25.874L38.3871 28.6957C36.8013 29.049 31.9917 30.0554 29.4373 29.8847C27.8025 29.7735 26.5847 29.3988 25.295 29.0024C24.1319 28.645 22.9293 28.2751 21.3748 28.0902C18.95 27.7984 16.011 29.4811 14.5181 30.5997L14.0893 28.2156C14.7639 27.6016 17.1323 25.6068 19.6864 25.3436ZM31.1427 37.7982C29.6015 37.6928 28.2945 37.3178 26.9111 36.9206C25.529 36.5239 24.0999 36.1135 22.4312 36.0003C19.6381 35.8102 17.148 37.653 15.9743 38.6999L15.5258 36.2056C16.4686 35.2982 19.2434 32.8923 21.9311 33.0667C23.4981 33.1735 25.036 33.5703 26.5231 33.9541C28.047 34.3472 29.6229 34.7542 31.2661 34.8657C33.5298 35.0214 37.2705 34.3421 39.589 33.8538L40.2241 36.5793C38.657 36.9322 33.7505 37.9757 31.1427 37.7982Z" fill="#005AA3"/>
</svg>
