<svg width="54" height="54" viewBox="0 0 54 54" fill="none" xmlns="http://www.w3.org/2000/svg">
<rect width="54" height="54" rx="10" fill="white"/>
<path fill-rule="evenodd" clip-rule="evenodd" d="M36.6896 16.46H33.7996V12.55C33.7994 12.4712 33.781 12.3936 33.7458 12.3231C33.7106 12.2526 33.6595 12.1912 33.5966 12.1438C33.5337 12.0964 33.4606 12.0641 33.3832 12.0497C33.3057 12.0352 33.226 12.0389 33.1502 12.0604L17.5102 16.4804H17.483L17.432 16.5008L17.3912 16.5246L17.347 16.5518L17.3096 16.5824L17.2756 16.6164L17.245 16.6538L17.2178 16.6946L17.194 16.7354L17.1736 16.8V16.8952C17.1726 16.9134 17.1726 16.9315 17.1736 16.9496V40.4402C17.1759 40.568 17.226 40.6903 17.3142 40.7829C17.4023 40.8755 17.522 40.9315 17.6496 40.94H36.6896C36.8248 40.94 36.9546 40.8863 37.0502 40.7907C37.1459 40.695 37.1996 40.5653 37.1996 40.43V16.97C37.1996 16.8348 37.1459 16.7051 37.0502 16.6094C36.9546 16.5138 36.8248 16.46 36.6896 16.46ZM32.7796 16.46H21.3284L32.7796 13.2232V16.46ZM36.1796 39.92H18.1596V17.48H36.1796V39.92Z" fill="#005AA3"/>
<path fill-rule="evenodd" clip-rule="evenodd" d="M27.1703 21.2202C26.1616 21.2202 25.1756 21.5193 24.3369 22.0797C23.4982 22.6401 22.8445 23.4366 22.4585 24.3685C22.0725 25.3004 21.9715 26.3259 22.1683 27.3152C22.3651 28.3045 22.8508 29.2132 23.5641 29.9265C24.2773 30.6397 25.1861 31.1254 26.1754 31.3222C27.1647 31.519 28.1901 31.418 29.122 31.032C30.0539 30.646 30.8504 29.9923 31.4108 29.1536C31.9712 28.3149 32.2703 27.3289 32.2703 26.3202C32.2703 24.9676 31.733 23.6704 30.7766 22.714C29.8201 21.7575 28.5229 21.2202 27.1703 21.2202ZM27.1703 30.4002C26.3634 30.4002 25.5745 30.1609 24.9036 29.7126C24.2326 29.2643 23.7097 28.6271 23.4009 27.8816C23.0921 27.136 23.0113 26.3157 23.1687 25.5242C23.3261 24.7328 23.7147 24.0058 24.2853 23.4352C24.8559 22.8646 25.5829 22.476 26.3743 22.3186C27.1658 22.1612 27.9861 22.242 28.7317 22.5508C29.4772 22.8596 30.1144 23.3825 30.5627 24.0535C31.011 24.7244 31.2503 25.5133 31.2503 26.3202C31.2503 27.4023 30.8205 28.4401 30.0553 29.2052C29.2902 29.9704 28.2524 30.4002 27.1703 30.4002ZM30.4003 34.8202H23.9403C23.8051 34.8202 23.6753 34.8739 23.5797 34.9696C23.484 35.0652 23.4303 35.195 23.4303 35.3302C23.4303 35.4655 23.484 35.5952 23.5797 35.6908C23.6753 35.7865 23.8051 35.8402 23.9403 35.8402H30.4003C30.5356 35.8402 30.6653 35.7865 30.7609 35.6908C30.8566 35.5952 30.9103 35.4655 30.9103 35.3302C30.9103 35.195 30.8566 35.0652 30.7609 34.9696C30.6653 34.8739 30.5356 34.8202 30.4003 34.8202Z" fill="#005AA3"/>
</svg>
