<svg width="177" height="76" viewBox="0 0 177 76" fill="none" xmlns="http://www.w3.org/2000/svg">
<g clip-path="url(#clip0_56_74)">
<path d="M90.8697 32.0504C90.8697 32.1878 90.8648 32.3074 90.8566 32.4135C90.8478 32.5153 90.8337 32.6042 90.8118 32.6839C90.7895 32.7593 90.7627 32.8299 90.7267 32.8919C90.6908 32.9495 90.6281 33.0249 90.543 33.109C90.453 33.1973 90.2693 33.3299 89.9917 33.5076C89.7092 33.6843 89.3592 33.8577 88.9426 34.0258C88.5259 34.1939 88.05 34.3356 87.5128 34.4509C86.9703 34.5705 86.383 34.6281 85.7418 34.6281C84.6392 34.6281 83.6392 34.4465 82.7514 34.0835C81.8637 33.7199 81.1015 33.1839 80.4787 32.4712C79.8511 31.7623 79.3669 30.8858 79.0304 29.845C78.6945 28.7994 78.5239 27.5992 78.5239 26.2396C78.5239 24.8448 78.7076 23.6043 79.0708 22.5107C79.434 21.4214 79.9449 20.495 80.6041 19.7376C81.2633 18.9807 82.0475 18.4043 82.9668 18.0062C83.8813 17.6075 84.8988 17.4082 86.0106 17.4082C86.5036 17.4082 86.9834 17.4524 87.4452 17.5413C87.9114 17.634 88.3417 17.7444 88.7365 17.8823C89.1307 18.0196 89.4807 18.1791 89.7899 18.3606C90.0948 18.5374 90.3101 18.6882 90.4268 18.8034C90.5478 18.9187 90.6237 19.0071 90.6597 19.0695C90.6956 19.1271 90.7224 19.1977 90.7447 19.2823C90.7671 19.3663 90.7851 19.4638 90.7987 19.5743C90.8118 19.6891 90.8162 19.8221 90.8162 19.9772C90.8162 20.1545 90.8075 20.3005 90.7895 20.4205C90.7715 20.544 90.7447 20.6463 90.7088 20.7303C90.6772 20.81 90.6324 20.872 90.5833 20.9118C90.5381 20.9517 90.4759 20.9695 90.4083 20.9695C90.2824 20.9695 90.1123 20.8854 89.8881 20.7169C89.6684 20.5488 89.3859 20.3624 89.0364 20.1588C88.6864 19.9551 88.2649 19.7693 87.7675 19.6007C87.2654 19.4326 86.6688 19.3481 85.9741 19.3481C85.2123 19.3481 84.522 19.4989 83.9031 19.7952C83.2804 20.0963 82.7466 20.5348 82.3071 21.115C81.8676 21.6952 81.5225 22.4041 81.2804 23.2412C81.0383 24.0783 80.9172 25.0345 80.9172 26.1065C80.9172 27.1742 81.0339 28.1174 81.2667 28.9368C81.4996 29.7562 81.836 30.4425 82.2711 30.9919C82.7058 31.5409 83.2439 31.9573 83.8759 32.2406C84.5128 32.5197 85.2298 32.6618 86.032 32.6618C86.7092 32.6618 87.3052 32.5778 87.8118 32.4135C88.3184 32.2498 88.7486 32.0682 89.103 31.8646C89.4618 31.6609 89.753 31.4789 89.982 31.3151C90.2148 31.1514 90.3942 31.0673 90.5245 31.0673C90.5872 31.0673 90.6412 31.0803 90.6854 31.1072C90.7306 31.1336 90.7618 31.1821 90.7885 31.2532C90.8152 31.3286 90.8376 31.4299 90.8512 31.5586C90.8643 31.6869 90.8692 31.8511 90.8692 32.0504H90.8697ZM88.8376 46.5049C88.8376 47.3463 88.6985 48.1037 88.4161 48.7814C88.1385 49.4542 87.7389 50.0301 87.2148 50.5089C86.6946 50.9825 86.0582 51.3504 85.3008 51.6116C84.5429 51.8729 83.6421 52.0012 82.5886 52.0012H80.6605V58.0421C80.6605 58.1132 80.6425 58.1751 80.6022 58.2236C80.5618 58.2769 80.4991 58.3168 80.4184 58.348C80.3333 58.3788 80.221 58.4057 80.0776 58.4277C79.9298 58.4498 79.7504 58.4585 79.5302 58.4585C79.3105 58.4585 79.1316 58.4498 78.9838 58.4277C78.8404 58.4057 78.7237 58.3792 78.6386 58.348C78.5487 58.3173 78.4908 58.2769 78.4548 58.2236C78.4189 58.1751 78.4014 58.1132 78.4014 58.0421V42.5455C78.4014 42.1997 78.4952 41.9518 78.679 41.8058C78.8627 41.6593 79.0645 41.5844 79.293 41.5844H82.9289C83.2964 41.5844 83.6508 41.5974 83.9868 41.6286C84.3227 41.6593 84.7218 41.7261 85.1793 41.8231C85.6411 41.9249 86.1078 42.1113 86.5872 42.3817C87.0626 42.6559 87.4661 42.9931 87.8026 43.3917C88.1341 43.7903 88.3898 44.2509 88.5692 44.7735C88.7486 45.2955 88.8381 45.8762 88.8381 46.5049H88.8376ZM86.47 46.6821C86.47 45.9953 86.3402 45.4242 86.0845 44.9637C85.8244 44.5074 85.5065 44.1621 85.1205 43.9363C84.7398 43.7149 84.3451 43.5684 83.9415 43.5108C83.5332 43.4489 83.1345 43.4176 82.749 43.4176H80.66V50.1675H82.6999C83.3815 50.1675 83.9508 50.0786 84.399 49.9062C84.8516 49.7333 85.2284 49.4941 85.5376 49.1838C85.8424 48.8784 86.0753 48.5105 86.2323 48.0811C86.3893 47.6518 86.47 47.1864 86.47 46.6816V46.6821ZM106.528 49.7866C106.528 51.1463 106.367 52.3686 106.044 53.4583C105.717 54.5476 105.233 55.4736 104.592 56.2396C103.946 57.0013 103.139 57.5901 102.166 58.0022C101.194 58.4143 100.059 58.6179 98.7633 58.6179C97.4857 58.6179 96.3831 58.4316 95.4502 58.0555C94.5134 57.679 93.7467 57.13 93.1366 56.4125C92.527 55.695 92.0739 54.8045 91.7783 53.7417C91.4779 52.6788 91.3301 51.4565 91.3301 50.0748C91.3301 48.7506 91.4915 47.5461 91.8143 46.465C92.1419 45.3844 92.6261 44.4675 93.2761 43.7096C93.9217 42.9571 94.7331 42.3721 95.7059 41.9605C96.6743 41.5489 97.808 41.3448 99.1085 41.3448C100.36 41.3448 101.449 41.5306 102.377 41.9028C103.305 42.2746 104.08 42.8149 104.694 43.5281C105.313 44.2413 105.775 45.1226 106.075 46.1768C106.375 47.2267 106.528 48.4313 106.528 49.7866H106.528ZM104.134 49.9417C104.134 48.9941 104.049 48.108 103.879 47.2935C103.708 46.4784 103.426 45.7696 103.027 45.1673C102.628 44.5698 102.098 44.1001 101.435 43.7634C100.767 43.4268 99.9471 43.2587 98.9694 43.2587C97.9879 43.2587 97.1673 43.4402 96.5037 43.8033C95.8401 44.1664 95.2975 44.6491 94.8853 45.2513C94.4687 45.8579 94.1726 46.5625 93.9932 47.3727C93.8138 48.1791 93.7239 49.0249 93.7239 49.9153C93.7239 50.9028 93.8089 51.8062 93.9752 52.6346C94.141 53.4674 94.4191 54.1802 94.8133 54.7824C95.2037 55.3804 95.7322 55.8453 96.3914 56.1776C97.0506 56.51 97.88 56.6781 98.8751 56.6781C99.8659 56.6781 100.695 56.4965 101.368 56.1335C102.04 55.7704 102.582 55.2834 102.995 54.6633C103.403 54.0476 103.699 53.3306 103.874 52.5194C104.048 51.7091 104.133 50.8499 104.133 49.9417H104.134ZM119.256 53.6668C119.256 54.451 119.108 55.1503 118.817 55.766C118.52 56.3774 118.113 56.9 117.592 57.3298C117.072 57.7549 116.458 58.0786 115.754 58.2952C115.046 58.5123 114.288 58.6189 113.472 58.6189C112.903 58.6189 112.374 58.5704 111.889 58.4767C111.401 58.3792 110.966 58.2596 110.585 58.1228C110.204 57.9854 109.886 57.8389 109.625 57.6929C109.37 57.5426 109.186 57.4182 109.088 57.3121C108.985 57.2102 108.913 57.0772 108.863 56.9182C108.814 56.7588 108.792 56.546 108.792 56.2804C108.792 56.0902 108.801 55.9303 108.818 55.8064C108.836 55.6825 108.863 55.5807 108.895 55.5053C108.931 55.4255 108.975 55.3727 109.029 55.3415C109.083 55.3103 109.141 55.2968 109.213 55.2968C109.334 55.2968 109.51 55.3722 109.733 55.5182C109.953 55.6642 110.24 55.8237 110.594 55.9966C110.944 56.1647 111.365 56.3289 111.863 56.4793C112.356 56.6296 112.93 56.705 113.576 56.705C114.069 56.705 114.517 56.6387 114.925 56.5105C115.333 56.3822 115.683 56.2002 115.974 55.961C116.27 55.7262 116.494 55.4342 116.651 55.0889C116.808 54.7431 116.889 54.3487 116.889 53.9103C116.889 53.4367 116.781 53.0294 116.562 52.6923C116.342 52.3561 116.055 52.0593 115.696 51.8023C115.333 51.5497 114.925 51.3148 114.468 51.1026C114.006 50.8903 113.535 50.6775 113.056 50.4556C112.576 50.2337 112.105 49.9907 111.652 49.7203C111.195 49.4547 110.787 49.1401 110.428 48.7771C110.07 48.414 109.779 47.9889 109.559 47.4976C109.334 47.0106 109.222 46.4261 109.222 45.7436C109.222 45.0395 109.353 44.4152 109.608 43.8657C109.868 43.3211 110.226 42.8605 110.684 42.4883C111.146 42.1161 111.692 41.8327 112.324 41.6377C112.961 41.4432 113.642 41.3457 114.377 41.3457C114.754 41.3457 115.131 41.3765 115.512 41.4432C115.893 41.5095 116.252 41.594 116.588 41.7045C116.924 41.8111 117.224 41.935 117.489 42.0676C117.749 42.2006 117.924 42.3111 118.005 42.3913C118.09 42.4753 118.144 42.5373 118.17 42.5863C118.197 42.6348 118.215 42.6967 118.233 42.7678C118.251 42.8432 118.264 42.9316 118.274 43.0382C118.282 43.14 118.287 43.2731 118.287 43.4417C118.287 43.5968 118.282 43.7341 118.269 43.8576C118.256 43.9772 118.233 44.079 118.206 44.1635C118.184 44.2432 118.144 44.3052 118.098 44.3451C118.049 44.3849 117.995 44.4022 117.933 44.4022C117.834 44.4022 117.686 44.3403 117.48 44.2207C117.273 44.0963 117.023 43.9632 116.722 43.8086C116.426 43.6583 116.072 43.5209 115.664 43.397C115.261 43.2688 114.803 43.2063 114.292 43.2063C113.822 43.2063 113.409 43.2688 113.059 43.3927C112.71 43.5209 112.418 43.6852 112.189 43.8931C111.965 44.1011 111.795 44.3451 111.678 44.6284C111.567 44.9161 111.508 45.2172 111.508 45.5361C111.508 46.001 111.616 46.404 111.835 46.7407C112.055 47.0774 112.346 47.3742 112.71 47.6354C113.078 47.8967 113.49 48.1316 113.956 48.3486C114.418 48.5657 114.893 48.7828 115.378 49.0042C115.857 49.2252 116.332 49.4648 116.794 49.7304C117.26 49.9917 117.673 50.3067 118.04 50.6655C118.403 51.0238 118.695 51.445 118.919 51.9363C119.143 52.4233 119.255 52.9996 119.255 53.6682L119.256 53.6668ZM131.939 57.4537C131.939 57.6132 131.93 57.7505 131.912 57.8653C131.894 57.9806 131.863 58.0781 131.823 58.1573C131.777 58.2371 131.728 58.2904 131.67 58.3259C131.612 58.3615 131.549 58.3792 131.477 58.3792H123.313C123.112 58.3792 122.919 58.313 122.74 58.1799C122.561 58.0421 122.471 57.8077 122.471 57.471V42.4921C122.471 42.156 122.561 41.9206 122.74 41.7837C122.919 41.6512 123.112 41.5844 123.313 41.5844H131.383C131.455 41.5844 131.518 41.6022 131.576 41.6373C131.634 41.6728 131.679 41.7261 131.715 41.8058C131.746 41.8856 131.778 41.983 131.8 42.0983C131.823 42.2131 131.832 42.3591 131.832 42.532C131.832 42.6915 131.823 42.824 131.8 42.9441C131.778 43.0589 131.746 43.1564 131.715 43.2318C131.679 43.3024 131.63 43.3557 131.576 43.3912C131.518 43.4263 131.455 43.4441 131.383 43.4441H124.73V48.7055H130.441C130.513 48.7055 130.576 48.7233 130.634 48.7631C130.688 48.803 130.737 48.8563 130.778 48.9269C130.818 48.998 130.845 49.0907 130.863 49.2103C130.881 49.3347 130.89 49.4759 130.89 49.6396C130.89 49.7991 130.881 49.9316 130.863 50.0431C130.845 50.1583 130.818 50.2467 130.778 50.3173C130.737 50.3884 130.688 50.4369 130.634 50.4681C130.576 50.4993 130.513 50.5123 130.441 50.5123H124.73V56.5182H131.477C131.549 56.5182 131.612 56.5359 131.67 56.5715C131.728 56.607 131.777 56.6598 131.823 56.7309C131.863 56.8058 131.894 56.9033 131.912 57.0186C131.93 57.1339 131.939 57.2799 131.939 57.4528V57.4537ZM144.429 57.4004C144.429 57.5781 144.42 57.7241 144.402 57.8389C144.384 57.9542 144.357 58.056 144.317 58.1401C144.277 58.2203 144.232 58.2822 144.174 58.3216C144.115 58.3615 144.048 58.3792 143.968 58.3792H136.449C136.247 58.3792 136.055 58.313 135.876 58.1799C135.697 58.0421 135.607 57.8077 135.607 57.471V41.9206C135.607 41.85 135.624 41.7881 135.66 41.7391C135.696 41.6858 135.755 41.6459 135.844 41.6152C135.929 41.5844 136.05 41.5575 136.198 41.5354C136.346 41.5129 136.525 41.5047 136.736 41.5047C136.955 41.5047 137.135 41.5133 137.283 41.5354C137.426 41.5575 137.543 41.5839 137.628 41.6152C137.718 41.6459 137.776 41.6858 137.812 41.7391C137.847 41.7876 137.865 41.8495 137.865 41.9206V56.4389H143.967C144.048 56.4389 144.115 56.4567 144.173 56.4965C144.227 56.5369 144.276 56.594 144.317 56.6651C144.357 56.74 144.384 56.8375 144.402 56.9619C144.42 57.0815 144.429 57.228 144.429 57.4004H144.429ZM158 58.0161C158 58.0867 157.982 58.1487 157.951 58.2063C157.924 58.264 157.861 58.3082 157.776 58.3437C157.687 58.3749 157.57 58.4061 157.422 58.4282C157.274 58.4503 157.081 58.459 156.844 58.459C156.539 58.459 156.288 58.446 156.095 58.4191C155.903 58.3922 155.759 58.3485 155.66 58.2774C155.567 58.2063 155.485 58.1309 155.428 58.0426L149.173 49.6454V58.0426C149.173 58.105 149.155 58.1626 149.12 58.2203C149.084 58.2731 149.025 58.3178 148.936 58.3485C148.851 58.3792 148.734 58.4061 148.591 58.4282C148.443 58.4503 148.264 58.459 148.043 58.459C147.833 58.459 147.654 58.4503 147.506 58.4282C147.358 58.4061 147.236 58.3797 147.151 58.3485C147.061 58.3178 147.004 58.2731 146.968 58.2203C146.932 58.1626 146.914 58.105 146.914 58.0426V41.9211C146.914 41.8505 146.932 41.7885 146.968 41.7396C147.004 41.6862 147.062 41.6464 147.151 41.6156C147.236 41.5849 147.357 41.558 147.506 41.5359C147.654 41.5133 147.833 41.5052 148.043 41.5052C148.263 41.5052 148.443 41.5138 148.591 41.5359C148.734 41.558 148.85 41.5844 148.936 41.6156C149.025 41.6464 149.084 41.6862 149.12 41.7396C149.155 41.7881 149.173 41.85 149.173 41.9211V49.3841L155.19 41.9211C155.244 41.8414 155.302 41.7799 155.374 41.7266C155.441 41.6733 155.526 41.6339 155.629 41.6027C155.728 41.5715 155.853 41.5494 155.997 41.5316C156.141 41.5138 156.329 41.5052 156.557 41.5052C156.782 41.5052 156.966 41.5138 157.109 41.5359C157.248 41.558 157.36 41.5887 157.441 41.62C157.526 41.6555 157.584 41.7002 157.611 41.753C157.642 41.8015 157.66 41.8596 157.66 41.9211C157.66 42.032 157.629 42.1473 157.575 42.2578C157.517 42.3682 157.409 42.5282 157.252 42.727L151.617 49.3841L157.683 57.3562C157.835 57.582 157.924 57.7323 157.952 57.8168C157.983 57.8966 158.001 57.9676 158.001 58.0161H158ZM163.147 58.0426C163.147 58.1136 163.129 58.1756 163.094 58.2241C163.058 58.2774 162.999 58.3173 162.91 58.3485C162.825 58.3792 162.708 58.4061 162.565 58.4282C162.417 58.4503 162.238 58.459 162.018 58.459C161.807 58.459 161.628 58.4503 161.48 58.4282C161.332 58.4061 161.211 58.3797 161.126 58.3485C161.036 58.3178 160.978 58.2774 160.942 58.2241C160.906 58.1756 160.889 58.1136 160.889 58.0426V41.9211C160.889 41.8505 160.906 41.7885 160.946 41.7396C160.987 41.6862 161.054 41.6464 161.144 41.6156C161.238 41.5849 161.354 41.558 161.498 41.5359C161.642 41.5133 161.817 41.5052 162.018 41.5052C162.238 41.5052 162.417 41.5138 162.565 41.5359C162.709 41.558 162.825 41.5844 162.91 41.6156C162.999 41.6464 163.058 41.6862 163.094 41.7396C163.129 41.7881 163.147 41.85 163.147 41.9211V58.0426ZM177.001 33.4903C177.001 33.6493 176.992 33.7866 176.974 33.9019C176.956 34.0172 176.925 34.1147 176.884 34.1944C176.839 34.2741 176.79 34.3274 176.731 34.363C176.673 34.398 176.61 34.4158 176.539 34.4158H168.375C168.173 34.4158 167.98 34.3495 167.801 34.2165C167.622 34.0791 167.532 33.8443 167.532 33.5081V18.5292C167.532 18.193 167.622 17.9577 167.801 17.8203C167.98 17.6877 168.173 17.621 168.375 17.621H176.444C176.516 17.621 176.579 17.6388 176.637 17.6743C176.696 17.7098 176.74 17.7627 176.776 17.8429C176.808 17.9226 176.839 18.0196 176.861 18.1349C176.884 18.2497 176.893 18.3962 176.893 18.5686C176.893 18.7285 176.884 18.8611 176.861 18.9807C176.839 19.0954 176.808 19.1929 176.776 19.2683C176.74 19.3389 176.691 19.3923 176.637 19.4283C176.579 19.4633 176.516 19.4811 176.444 19.4811H169.791V24.7425H175.503C175.575 24.7425 175.638 24.7603 175.696 24.8002C175.75 24.84 175.799 24.8933 175.84 24.9639C175.88 25.0346 175.907 25.1277 175.925 25.2473C175.943 25.3712 175.952 25.5129 175.952 25.6767C175.952 25.8366 175.943 25.9692 175.925 26.0801C175.907 26.1954 175.88 26.2842 175.84 26.3548C175.8 26.4254 175.75 26.4744 175.696 26.5052C175.638 26.5364 175.575 26.5498 175.503 26.5498H169.791V32.5557H176.539C176.61 32.5557 176.673 32.5735 176.731 32.6085C176.79 32.6441 176.839 32.6969 176.884 32.768C176.924 32.8429 176.956 32.9404 176.974 33.0557C176.992 33.1709 177.001 33.3169 177.001 33.4898V33.4903ZM163.313 19.9153C163.313 20.079 163.304 20.2251 163.286 20.349C163.268 20.4729 163.241 20.579 163.21 20.6635C163.174 20.7433 163.13 20.8009 163.076 20.836C163.027 20.8715 162.968 20.8893 162.906 20.8893C162.802 20.8893 162.627 20.8052 162.381 20.641C162.135 20.4772 161.807 20.2909 161.395 20.092C160.982 19.8927 160.489 19.7064 159.915 19.5426C159.341 19.3793 158.66 19.2948 157.875 19.2948C156.934 19.2948 156.096 19.4629 155.351 19.7995C154.607 20.1405 153.975 20.6054 153.459 21.2034C152.939 21.8013 152.545 22.5102 152.267 23.3334C151.993 24.1571 151.854 25.048 151.854 26.0086C151.854 27.0849 152.006 28.0372 152.306 28.87C152.611 29.6985 153.028 30.4021 153.567 30.9737C154.1 31.5452 154.737 31.9789 155.481 32.2718C156.22 32.5687 157.036 32.7147 157.92 32.7147C158.449 32.7147 158.982 32.6527 159.52 32.5245C160.058 32.4001 160.56 32.2099 161.026 31.9621V27.0546H157.09C156.937 27.0546 156.825 26.9792 156.753 26.8327C156.677 26.6867 156.641 26.4562 156.641 26.1421C156.641 25.9783 156.65 25.8366 156.668 25.7213C156.686 25.6061 156.713 25.5086 156.753 25.4332C156.794 25.3626 156.838 25.3088 156.892 25.2737C156.941 25.2382 157.009 25.2204 157.09 25.2204H162.483C162.582 25.2204 162.676 25.2382 162.774 25.2737C162.869 25.3088 162.958 25.3578 163.034 25.4289C163.115 25.4999 163.178 25.5926 163.218 25.7122C163.263 25.8366 163.285 25.9735 163.285 26.1286V32.5374C163.285 32.7632 163.245 32.9582 163.169 33.1219C163.088 33.2857 162.922 33.4317 162.666 33.5561C162.416 33.6795 162.083 33.8174 161.68 33.9634C161.276 34.1137 160.864 34.2376 160.434 34.3442C160.004 34.4461 159.569 34.5258 159.134 34.5743C158.695 34.6276 158.259 34.654 157.834 34.654C156.516 34.654 155.341 34.4547 154.31 34.0518C153.274 33.6483 152.4 33.0729 151.688 32.3285C150.974 31.5846 150.428 30.6941 150.051 29.6534C149.674 28.6126 149.486 27.4566 149.486 26.1723C149.486 24.8391 149.688 23.6302 150.096 22.5496C150.504 21.469 151.078 20.5478 151.817 19.7813C152.557 19.0196 153.445 18.4303 154.481 18.0095C155.52 17.5888 156.668 17.3804 157.928 17.3804C158.578 17.3804 159.183 17.438 159.752 17.5485C160.322 17.6637 160.829 17.7968 161.273 17.9471C161.712 18.1022 162.084 18.266 162.389 18.4475C162.689 18.6248 162.895 18.7708 163.012 18.886C163.124 18.9965 163.205 19.1295 163.245 19.276C163.29 19.422 163.312 19.6348 163.312 19.9138L163.313 19.9153ZM147.923 33.6272C147.99 33.8179 148.03 33.9682 148.035 34.0878C148.04 34.203 148.004 34.2919 147.936 34.3538C147.865 34.4115 147.748 34.4513 147.586 34.4686C147.425 34.4864 147.21 34.4955 146.936 34.4955C146.667 34.4955 146.448 34.4912 146.286 34.4778C146.125 34.4648 146.004 34.4427 145.918 34.4115C145.833 34.3803 145.775 34.3404 145.735 34.2871C145.694 34.2338 145.659 34.1718 145.623 34.0926L144.166 30.0045H137.101L135.706 34.0393C135.68 34.119 135.649 34.1853 135.603 34.2434C135.559 34.301 135.496 34.3452 135.41 34.3851C135.33 34.4249 135.209 34.4513 135.056 34.4691C134.904 34.4869 134.706 34.496 134.46 34.496C134.204 34.496 133.998 34.4869 133.837 34.4653C133.675 34.4432 133.558 34.4033 133.496 34.3409C133.429 34.2789 133.397 34.1906 133.402 34.0753C133.406 33.9557 133.442 33.8049 133.514 33.6147L139.212 18.0115C139.248 17.914 139.297 17.8342 139.351 17.7766C139.409 17.7142 139.49 17.6657 139.602 17.6344C139.71 17.5989 139.848 17.5725 140.023 17.559C140.194 17.5461 140.409 17.5417 140.673 17.5417C140.951 17.5417 141.184 17.5461 141.369 17.559C141.552 17.5725 141.7 17.5989 141.812 17.6344C141.929 17.6652 142.014 17.7185 142.077 17.7804C142.14 17.8467 142.189 17.9264 142.22 18.0196L147.923 33.6277V33.6272ZM140.606 19.8528H140.593L137.666 28.2236H143.575L140.607 19.8528H140.606ZM135.109 18.5772C135.109 18.741 135.1 18.8832 135.082 19.0023C135.064 19.1219 135.037 19.2194 134.997 19.2948C134.957 19.3654 134.912 19.423 134.854 19.4537C134.795 19.4893 134.733 19.507 134.666 19.507H129.891V34.0782C129.891 34.1492 129.873 34.2069 129.837 34.2597C129.802 34.313 129.743 34.3529 129.653 34.3836C129.568 34.4144 129.452 34.4413 129.308 34.4634C129.16 34.4854 128.981 34.4941 128.762 34.4941C128.551 34.4941 128.371 34.485 128.224 34.4634C128.076 34.4413 127.955 34.4148 127.869 34.3836C127.78 34.3529 127.721 34.313 127.686 34.2597C127.65 34.2064 127.632 34.1492 127.632 34.0782V19.507H122.857C122.79 19.507 122.728 19.4893 122.669 19.4537C122.611 19.423 122.566 19.3654 122.53 19.2948C122.499 19.2194 122.467 19.1219 122.445 19.0023C122.423 18.8827 122.414 18.741 122.414 18.5772C122.414 18.4134 122.423 18.267 122.445 18.1431C122.468 18.0191 122.499 17.9173 122.53 17.8424C122.566 17.7622 122.611 17.705 122.669 17.6738C122.728 17.6388 122.79 17.6205 122.857 17.6205H134.666C134.733 17.6205 134.796 17.6383 134.854 17.6738C134.913 17.7046 134.957 17.7622 134.998 17.8424C135.038 17.9173 135.065 18.0191 135.083 18.1431C135.101 18.267 135.109 18.4134 135.109 18.5772H135.109ZM120.71 18.5772C120.71 18.741 120.701 18.8832 120.683 19.0023C120.665 19.1219 120.639 19.2194 120.598 19.2948C120.558 19.3654 120.513 19.423 120.455 19.4537C120.397 19.4893 120.334 19.507 120.267 19.507H115.492V34.0782C115.492 34.1492 115.474 34.2069 115.438 34.2597C115.403 34.313 115.344 34.3529 115.255 34.3836C115.169 34.4144 115.053 34.4413 114.909 34.4634C114.762 34.4854 114.582 34.4941 114.363 34.4941C114.152 34.4941 113.973 34.485 113.825 34.4634C113.677 34.4413 113.556 34.4148 113.47 34.3836C113.381 34.3529 113.323 34.313 113.287 34.2597C113.251 34.2064 113.233 34.1492 113.233 34.0782V19.507H108.458C108.391 19.507 108.328 19.4893 108.27 19.4537C108.212 19.423 108.167 19.3654 108.131 19.2948C108.1 19.2194 108.068 19.1219 108.046 19.0023C108.024 18.8827 108.015 18.741 108.015 18.5772C108.015 18.4134 108.024 18.267 108.046 18.1431C108.068 18.0191 108.1 17.9173 108.131 17.8424C108.166 17.7622 108.212 17.705 108.27 17.6738C108.328 17.6388 108.391 17.6205 108.458 17.6205H120.267C120.334 17.6205 120.397 17.6383 120.455 17.6738C120.513 17.7046 120.558 17.7622 120.598 17.8424C120.639 17.9173 120.665 18.0191 120.683 18.1431C120.701 18.267 120.71 18.4134 120.71 18.5772ZM107.852 25.8232C107.852 27.1828 107.691 28.4051 107.368 29.4949C107.041 30.5842 106.557 31.5101 105.916 32.2762C105.27 33.0379 104.463 33.6272 103.491 34.0388C102.518 34.4509 101.384 34.6545 100.088 34.6545C98.81 34.6545 97.7074 34.4682 96.7745 34.0921C95.8377 33.7156 95.071 33.1666 94.4609 32.4486C93.8512 31.7311 93.3981 30.8406 93.1026 29.7778C92.8021 28.7149 92.6539 27.4921 92.6539 26.1104C92.6539 24.7862 92.8157 23.5817 93.1381 22.5006C93.4657 21.42 93.9499 20.5031 94.5999 19.7457C95.2455 18.9931 96.0569 18.4082 97.0297 17.9961C97.9981 17.5845 99.1318 17.3804 100.432 17.3804C101.684 17.3804 102.773 17.5662 103.701 17.9389C104.629 18.3107 105.404 18.851 106.018 19.5642C106.637 20.2769 107.099 21.1587 107.399 22.2124C107.699 23.2623 107.851 24.4669 107.851 25.8222L107.852 25.8232ZM105.459 25.9783C105.459 25.0307 105.373 24.1451 105.203 23.33C105.033 22.515 104.75 21.8066 104.351 21.2039C103.952 20.6059 103.423 20.1362 102.759 19.8C102.091 19.4633 101.271 19.2952 100.294 19.2952C99.3122 19.2952 98.4916 19.4768 97.828 19.8399C97.1644 20.203 96.6218 20.6861 96.2096 21.2884C95.7929 21.895 95.4969 22.5995 95.3175 23.4098C95.1381 24.2157 95.0481 25.0619 95.0481 25.9524C95.0481 26.9398 95.1332 27.8432 95.2995 28.6712C95.4653 29.504 95.7433 30.2172 96.1376 30.8195C96.528 31.4174 97.0564 31.8823 97.7157 32.2147C98.3744 32.547 99.2043 32.7151 100.199 32.7151C101.19 32.7151 102.02 32.5336 102.692 32.1705C103.364 31.8074 103.906 31.3204 104.319 30.7004C104.727 30.0847 105.023 29.3671 105.198 28.5564C105.373 27.7457 105.458 26.887 105.458 25.9788L105.459 25.9783Z" fill="#2C2C2C"/>
<path fill-rule="evenodd" clip-rule="evenodd" d="M58.8583 19.6073H58.8573C56.0401 19.6073 53.7352 21.8843 53.7352 24.6675V51.3325C53.7352 54.1157 56.0401 56.3927 58.8573 56.3927H58.8583C61.6755 56.3927 63.9804 54.1157 63.9804 51.3325V24.6675C63.9804 21.8843 61.6755 19.6073 58.8583 19.6073ZM5.12306 19.6073H5.12403C7.94128 19.6073 10.2461 21.8843 10.2461 24.6675V51.3325C10.2461 54.1157 7.94128 56.3927 5.12403 56.3927H5.12306C2.30582 56.3927 0.000976562 54.1157 0.000976562 51.3325V24.6675C0.000976562 21.8843 2.30582 19.6073 5.12306 19.6073ZM18.5564 9.70351H18.5574C21.3746 9.70351 23.6794 11.98 23.6794 14.7632V61.2363C23.6794 64.0195 21.3746 66.2965 18.5574 66.2965H18.5564C15.7391 66.2965 13.4343 64.0195 13.4343 61.2363V14.7632C13.4343 11.98 15.7391 9.70351 18.5564 9.70351ZM31.9902 -0.000488281H31.9912C34.8084 -0.000488281 37.1128 2.27651 37.1128 5.05971V70.9398C37.1128 73.723 34.8079 76 31.9912 76H31.9902C29.1729 76 26.8686 73.723 26.8686 70.9398V5.05971C26.8686 2.27651 29.1734 -0.000488281 31.9902 -0.000488281ZM45.425 9.70351H45.424C42.6067 9.70351 40.3019 11.98 40.3019 14.7632V61.2363C40.3019 64.0195 42.6067 66.2965 45.424 66.2965H45.425C48.2422 66.2965 50.547 64.0195 50.547 61.2363V14.7632C50.547 11.98 48.2422 9.70351 45.425 9.70351Z" fill="url(#paint0_radial_56_74)"/>
<path fill-rule="evenodd" clip-rule="evenodd" d="M53.7352 31.6972V39.3668L63.9799 46.8221V39.1526L53.7352 31.6972ZM0.000976562 39.1526V46.8221L10.2456 39.3668V31.6972L0.000976562 39.1526ZM26.8681 19.6005V27.27L31.9907 23.5426L37.1128 27.27V19.6005L31.9907 15.873L26.8681 19.6005ZM40.3019 21.9217V29.5912L50.5466 37.0461V29.3765L40.3019 21.9217Z" fill="#005AA3"/>
<path fill-rule="evenodd" clip-rule="evenodd" d="M5.12257 19.6073C7.93982 19.6073 10.2447 21.8848 10.2447 24.668V29.3776C9.60051 29.088 8.88684 28.9261 8.13622 28.9261C5.31898 28.9261 3.01414 31.2036 3.01414 33.9868V55.9417C1.24115 55.1435 0.000976562 53.3746 0.000976562 51.333V24.6685C0.000976562 21.8853 2.30582 19.6078 5.12306 19.6078L5.12257 19.6073ZM18.5564 9.70352H18.5569C21.3741 9.70352 23.6789 11.9805 23.6789 14.7637V19.4738C23.0353 19.1842 22.3211 19.0223 21.5705 19.0223C18.7533 19.0223 16.4484 21.2993 16.4484 24.083V65.845C14.6754 65.0473 13.4348 63.278 13.4348 61.2368V14.7642C13.4348 11.981 15.7396 9.704 18.5569 9.704L18.5564 9.70352ZM31.9897 0H31.9902C34.8074 0 37.1123 2.27699 37.1123 5.06068V9.77028C36.4686 9.48067 35.7544 9.31882 35.0038 9.31882H35.0033C32.1861 9.31882 29.8813 11.5958 29.8813 14.3795V75.549C28.1083 74.7513 26.8681 72.9824 26.8681 70.9403V5.06116C26.8681 2.27747 29.1729 0.000480277 31.9902 0.000480277L31.9897 0ZM45.4235 9.70352H45.423C42.6058 9.70352 40.3009 11.9805 40.3009 14.7637V61.2363C40.3009 63.2775 41.5411 65.0468 43.3146 65.8446V24.0825C43.3146 21.2988 45.6194 19.0219 48.4367 19.0219C49.1873 19.0219 49.9014 19.1837 50.5451 19.4733V14.7632C50.5451 11.98 48.2403 9.70304 45.423 9.70304L45.4235 9.70352ZM58.8573 19.6073C56.0401 19.6073 53.7352 21.8848 53.7352 24.668V51.3325C53.7352 53.3742 54.9754 55.143 56.7489 55.9412V33.9863C56.7489 31.2031 59.0537 28.9257 61.871 28.9257H61.8714C62.6221 28.9257 63.3362 29.0875 63.9799 29.3771V24.6675C63.9799 21.8843 61.675 19.6068 58.8578 19.6068L58.8573 19.6073Z" fill="#0052A3"/>
<path fill-rule="evenodd" clip-rule="evenodd" d="M58.8583 19.6073C56.041 19.6073 53.7362 21.8848 53.7362 24.668V51.3325C53.7362 52.7983 54.376 54.1234 55.3925 55.0498C55.1237 54.436 54.9739 53.7608 54.9739 53.0524V26.3879C54.9739 23.6047 57.2788 21.3277 60.096 21.3277C61.4295 21.3277 62.6478 21.8382 63.5618 22.6705C62.7742 20.8728 60.9584 19.6073 58.8583 19.6073ZM5.12355 19.6073C7.2242 19.6073 9.03949 20.8728 9.82705 22.6705C8.91358 21.8382 7.6948 21.3277 6.36129 21.3277H6.3608C3.54356 21.3277 1.23872 23.6047 1.23872 26.3879V53.0524C1.23872 53.7608 1.38796 54.436 1.65729 55.0498C0.640265 54.1234 0.000976562 52.7983 0.000976562 51.3325V24.668C0.000976562 21.8848 2.30582 19.6073 5.12306 19.6073H5.12355ZM18.5574 9.70352H18.5578C20.6575 9.70352 22.4733 10.969 23.2613 12.7662C22.3474 11.9339 21.1291 11.4234 19.7961 11.4234C16.9788 11.4234 14.674 13.7004 14.674 16.4836V62.9562C14.674 63.6641 14.8232 64.3398 15.0926 64.9531C14.076 64.0267 13.4362 62.7016 13.4362 61.2358V14.7632C13.4362 11.98 15.7411 9.70304 18.5583 9.70304L18.5574 9.70352ZM31.9907 0C29.1734 0 26.8686 2.27699 26.8686 5.06068V70.9398C26.8686 72.4056 27.5079 73.7312 28.5249 74.6571C28.2561 74.0438 28.1063 73.3681 28.1063 72.6597V6.78055C28.1063 3.99735 30.4112 1.71987 33.2284 1.71987H33.2289C34.5624 1.71987 35.7807 2.23041 36.6942 3.06273C35.9061 1.26553 34.0908 0 31.9907 0ZM45.4245 9.70352H45.424C42.6067 9.70352 40.3019 11.9805 40.3019 14.7637V61.2363C40.3019 62.7021 40.9417 64.0272 41.9582 64.9536C41.6894 64.3403 41.5396 63.665 41.5396 62.9566V16.4841C41.5396 13.7009 43.8445 11.4239 46.6617 11.4239C47.9952 11.4239 49.2135 11.9344 50.127 12.7667C49.339 10.9695 47.5237 9.704 45.4235 9.704L45.4245 9.70352Z" fill="url(#paint1_radial_56_74)"/>
<path fill-rule="evenodd" clip-rule="evenodd" d="M53.7347 37.995V39.3671L63.9794 46.8225V45.4498L53.7347 37.995ZM13.4338 21.3442V22.7169H23.6785V21.3442H13.4338ZM0 45.4498V46.8225L10.2447 39.3671V37.995L0 45.4498ZM26.8671 25.8977V27.2704L31.9897 23.5429L37.1118 27.2704V25.8977L31.9897 22.1703L26.8671 25.8977ZM40.3009 28.2189V29.5916L50.5456 37.0464V35.6743L40.3009 28.2189Z" fill="#004A9A"/>
<path fill-rule="evenodd" clip-rule="evenodd" d="M53.7347 39.3675V51.3327C53.7347 54.1159 56.0396 56.3929 58.8568 56.3929C61.6741 56.3929 63.9789 54.1159 63.9789 51.3327V46.8229L53.7342 39.3675H53.7347ZM23.6785 29.5915V22.7173H13.4338V37.0468V61.2365C13.4338 64.0197 15.7386 66.2971 18.5559 66.2971C21.3731 66.2971 23.678 64.0202 23.678 61.2365V29.592L23.6785 29.5915ZM0.000486151 46.8229V51.3327C0.000486151 54.1159 2.30533 56.3929 5.12257 56.3929C7.93981 56.3929 10.2447 54.1159 10.2447 51.3327V39.3675L0 46.8229H0.000486151ZM26.8676 27.2708V70.94C26.8676 73.7232 29.1724 76.0002 31.9897 76.0002C34.8069 76.0002 37.1118 73.7232 37.1118 70.94V27.2708L31.9897 23.5429L26.8676 27.2708ZM40.3009 29.592V61.2365C40.3009 64.0197 42.6058 66.2971 45.423 66.2971C48.2403 66.2971 50.5451 64.0202 50.5451 61.2365V37.0468L40.3004 29.5915L40.3009 29.592Z" fill="#95C12B"/>
<path fill-rule="evenodd" clip-rule="evenodd" d="M40.3013 29.5913V61.2358C40.3013 64.019 42.6061 66.2965 45.4234 66.2965C48.2406 66.2965 50.5454 64.0195 50.5454 61.2358V37.0462L40.3008 29.5908L40.3013 29.5913Z" fill="#589308"/>
<path fill-rule="evenodd" clip-rule="evenodd" d="M26.8672 27.2699V70.9391C26.8672 73.7223 29.172 75.9993 31.9893 75.9993C34.8065 75.9993 37.1114 73.7223 37.1114 70.9391V27.2699L31.9893 23.542L26.8672 27.2699Z" fill="#589308"/>
<path fill-rule="evenodd" clip-rule="evenodd" d="M0.000486151 46.822V51.3318C0.000486151 54.1151 2.30533 56.392 5.12257 56.392C7.93981 56.392 10.2447 54.1151 10.2447 51.3318V39.3667L0 46.822H0.000486151Z" fill="#589308"/>
<path fill-rule="evenodd" clip-rule="evenodd" d="M23.6782 22.7173H13.4336V61.236C13.4336 64.0192 15.7384 66.2967 18.5557 66.2967C21.3729 66.2967 23.6778 64.0197 23.6778 61.236V22.7173H23.6782Z" fill="#589308"/>
<path fill-rule="evenodd" clip-rule="evenodd" d="M53.7349 39.3672V51.3323C53.7349 54.1155 56.0397 56.3925 58.8569 56.3925C61.6742 56.3925 63.979 54.1155 63.979 51.3323V46.8225L53.7344 39.3672H53.7349Z" fill="#589308"/>
<path fill-rule="evenodd" clip-rule="evenodd" d="M45.7755 33.5754V62.2426C45.7755 63.2157 44.9705 64.0105 43.9855 64.0105H43.9846C42.9996 64.0105 42.1946 63.2157 42.1946 62.2426V30.9694L45.7751 33.5754H45.7755ZM18.6396 22.7173V62.2426C18.6396 63.2157 17.8345 64.0105 16.8496 64.0105H16.8486C15.8641 64.0105 15.0586 63.2157 15.0586 62.2426V22.7173H18.6391H18.6396Z" fill="#86B71F"/>
<path fill-rule="evenodd" clip-rule="evenodd" d="M31.9902 23.5425V71.9405C31.9902 72.9135 31.1851 73.7089 30.2002 73.7089H30.1992C29.2147 73.7089 28.4092 72.9135 28.4092 71.9405V26.1485L31.9897 23.543L31.9902 23.5425Z" fill="#7DB218"/>
<path fill-rule="evenodd" clip-rule="evenodd" d="M59.4162 43.5015V52.6364C59.4162 53.6089 58.6111 54.4047 57.6262 54.4047H57.6252C56.6408 54.4047 55.8352 53.6094 55.8352 52.6364V40.8955L59.4157 43.501L59.4162 43.5015ZM5.43402 42.8685V52.6368C5.43402 53.6094 4.62895 54.4052 3.64401 54.4052H3.64352C2.65858 54.4052 1.85352 53.6099 1.85352 52.6368V45.4745L5.43402 42.8685Z" fill="#90BF27"/>
<path fill-rule="evenodd" clip-rule="evenodd" d="M53.7347 39.3675C53.7347 40.1312 53.7347 40.8953 53.7347 41.6589L63.9794 49.1143C63.9794 48.3506 63.9794 47.5865 63.9794 46.8229L53.7347 39.3675ZM13.4338 25.0082H23.6785C23.6785 24.2446 23.6785 23.4809 23.6785 22.7173H13.4338C13.4338 23.4809 13.4338 24.2446 13.4338 25.0082ZM0 49.1143L10.2447 41.6589C10.2447 40.8953 10.2447 40.1312 10.2447 39.3675L0 46.8229C0 47.5865 0 48.3506 0 49.1143ZM26.8671 29.5622L31.9892 25.8348L37.1113 29.5622C37.1113 28.7986 37.1113 28.0349 37.1113 27.2713L31.9892 23.5434L26.8671 27.2713C26.8671 28.0349 26.8671 28.7986 26.8671 29.5622ZM40.3004 31.8834L50.5451 39.3382C50.5451 38.5746 50.5451 37.811 50.5451 37.0468L40.3004 29.592C40.3004 30.3556 40.3004 31.1197 40.3004 31.8834Z" fill="#CEEC4C"/>
</g>
<defs>
<radialGradient id="paint0_radial_56_74" cx="0" cy="0" r="1" gradientUnits="userSpaceOnUse" gradientTransform="translate(31.9884 38.0058) scale(35.1885 41.8)">
<stop stop-color="#0076BE"/>
<stop offset="0.780392" stop-color="#005FAD"/>
<stop offset="1" stop-color="#00499C"/>
</radialGradient>
<radialGradient id="paint1_radial_56_74" cx="0" cy="0" r="1" gradientUnits="userSpaceOnUse" gradientTransform="translate(31.7868 37.3286) scale(31.78 37.3286)">
<stop stop-color="#006BB5"/>
<stop offset="0.4" stop-color="#004B99"/>
<stop offset="1" stop-color="#002B7D"/>
</radialGradient>
<clipPath id="clip0_56_74">
<rect width="177" height="76" fill="white"/>
</clipPath>
</defs>
</svg>
