<svg width="100" height="44" viewBox="0 0 100 44" fill="none" xmlns="http://www.w3.org/2000/svg">
<g clip-path="url(#clip0_56_7497)">
<path d="M51.3392 18.1661C51.3392 18.2439 51.3364 18.3117 51.3318 18.3719C51.3268 18.4296 51.3188 18.48 51.3065 18.5252C51.2938 18.5679 51.2787 18.6079 51.2584 18.643C51.2381 18.6757 51.2027 18.7184 51.1546 18.7661C51.1038 18.8162 51 18.8913 50.8431 18.992C50.6835 19.0922 50.4858 19.1905 50.2504 19.2857C50.015 19.381 49.7461 19.4613 49.4426 19.5267C49.1361 19.5944 48.8043 19.6271 48.442 19.6271C47.8191 19.6271 47.2541 19.5242 46.7526 19.3184C46.2511 19.1123 45.8204 18.8085 45.4686 18.4046C45.114 18.0028 44.8404 17.506 44.6503 16.916C44.4605 16.3234 44.3641 15.6431 44.3641 14.8725C44.3641 14.0819 44.468 13.3788 44.6731 12.7589C44.8783 12.1415 45.167 11.6164 45.5394 11.1871C45.9119 10.7581 46.3549 10.4315 46.8743 10.2058C47.3909 9.97984 47.9658 9.86686 48.5939 9.86686C48.8724 9.86686 49.1435 9.89191 49.4044 9.94227C49.6679 9.99481 49.9109 10.0574 50.134 10.1355C50.3567 10.2134 50.5545 10.3038 50.7291 10.4067C50.9014 10.5069 51.023 10.5923 51.089 10.6577C51.1573 10.723 51.2002 10.7731 51.2205 10.8085C51.2408 10.8411 51.2559 10.8812 51.2686 10.9291C51.2812 10.9767 51.2914 11.032 51.2991 11.0946C51.3065 11.1596 51.309 11.2351 51.309 11.323C51.309 11.4234 51.304 11.5062 51.2938 11.5742C51.2837 11.6442 51.2686 11.7022 51.2483 11.7498C51.2304 11.795 51.2051 11.8301 51.1774 11.8527C51.1518 11.8753 51.1167 11.8854 51.0785 11.8854C51.0074 11.8854 50.9112 11.8377 50.7846 11.7422C50.6605 11.6469 50.5009 11.5413 50.3034 11.4259C50.1057 11.3105 49.8675 11.2051 49.5866 11.1096C49.3028 11.0143 48.9658 10.9664 48.5733 10.9664C48.1429 10.9664 47.7529 11.0518 47.4033 11.2198C47.0514 11.3905 46.7498 11.639 46.5016 11.9679C46.2533 12.2967 46.0583 12.6985 45.9215 13.173C45.7847 13.6475 45.7163 14.1895 45.7163 14.7971C45.7163 15.4022 45.7822 15.9369 45.9138 16.4013C46.0453 16.8657 46.2354 17.2547 46.4812 17.5661C46.7268 17.8773 47.0308 18.1133 47.3879 18.2739C47.7477 18.4321 48.1528 18.5126 48.606 18.5126C48.9886 18.5126 49.3253 18.465 49.6115 18.3719C49.8977 18.2791 50.1408 18.1762 50.341 18.0607C50.5437 17.9453 50.7083 17.8421 50.8376 17.7493C50.9692 17.6565 51.0705 17.6089 51.1442 17.6089C51.1796 17.6089 51.2101 17.6162 51.2351 17.6314C51.2606 17.6464 51.2782 17.6739 51.2933 17.7142C51.3084 17.7569 51.321 17.8144 51.3287 17.8873C51.3361 17.96 51.3389 18.0531 51.3389 18.1661H51.3392ZM50.1911 26.3589C50.1911 26.8358 50.1125 27.2651 49.9529 27.6492C49.7961 28.0306 49.5703 28.357 49.2743 28.6284C48.9804 28.8968 48.6208 29.1053 48.1929 29.2534C47.7647 29.4015 47.2558 29.4742 46.6606 29.4742H45.5713V32.8982C45.5713 32.9385 45.5611 32.9736 45.5383 33.0011C45.5155 33.0313 45.4801 33.0539 45.4345 33.0716C45.3864 33.089 45.323 33.1043 45.242 33.1168C45.1585 33.1293 45.0571 33.1342 44.9327 33.1342C44.8085 33.1342 44.7075 33.1293 44.624 33.1168C44.5429 33.1043 44.477 33.0893 44.429 33.0716C44.3781 33.0542 44.3455 33.0313 44.3251 33.0011C44.3048 32.9736 44.2949 32.9385 44.2949 32.8982V24.1147C44.2949 23.9187 44.3479 23.7782 44.4518 23.6955C44.5556 23.6124 44.6696 23.57 44.7987 23.57H46.8528C47.0605 23.57 47.2607 23.5773 47.4505 23.595C47.6403 23.6124 47.8658 23.6503 48.1243 23.7053C48.3852 23.763 48.6489 23.8686 48.9197 24.0219C49.1883 24.1773 49.4163 24.3684 49.6063 24.5943C49.7936 24.8203 49.9381 25.0813 50.0395 25.3775C50.1408 25.6734 50.1914 26.0025 50.1914 26.3589H50.1911ZM48.8535 26.4593C48.8535 26.0701 48.7801 25.7464 48.6357 25.4853C48.4887 25.2267 48.3091 25.031 48.091 24.903C47.876 24.7775 47.6529 24.6945 47.425 24.6618C47.1943 24.6267 46.969 24.609 46.7512 24.609H45.571V28.4348H46.7235C47.1086 28.4348 47.4302 28.3845 47.6834 28.2868C47.9391 28.1888 48.152 28.0532 48.3267 27.8773C48.4989 27.7042 48.6305 27.4957 48.7192 27.2523C48.8079 27.0089 48.8535 26.7452 48.8535 26.4591V26.4593ZM60.1857 28.219C60.1857 28.9896 60.0946 29.6824 59.9122 30.3001C59.7273 30.9175 59.4538 31.4424 59.0918 31.8765C58.727 32.3083 58.2711 32.642 57.7215 32.8756C57.1719 33.1092 56.5311 33.2246 55.7988 33.2246C55.077 33.2246 54.4541 33.119 53.927 32.9058C53.3978 32.6924 52.9646 32.3812 52.6199 31.9745C52.2755 31.5678 52.0195 31.0631 51.8525 30.4607C51.6828 29.8583 51.5993 29.1655 51.5993 28.3823C51.5993 27.6318 51.6905 26.9491 51.8728 26.3363C52.058 25.7238 52.3315 25.2041 52.6987 24.7745C53.0635 24.348 53.5219 24.0164 54.0715 23.7831C54.6186 23.5498 55.2591 23.4341 55.9939 23.4341C56.7008 23.4341 57.3161 23.5395 57.8404 23.7504C58.3647 23.9611 58.8028 24.2674 59.1497 24.6716C59.4994 25.0759 59.7603 25.5754 59.9298 26.173C60.0995 26.768 60.1855 27.4508 60.1855 28.219H60.1857ZM58.8333 28.3069C58.8333 27.7698 58.7852 27.2676 58.6888 26.8059C58.5927 26.3439 58.4331 25.9421 58.2076 25.6007C57.9821 25.2621 57.683 24.9959 57.3084 24.805C56.931 24.6142 56.4676 24.5189 55.9153 24.5189C55.3608 24.5189 54.8971 24.6218 54.5222 24.8276C54.1473 25.0334 53.8408 25.307 53.6079 25.6484C53.3725 25.9922 53.2052 26.3915 53.1039 26.8508C53.0025 27.3078 52.9517 27.7872 52.9517 28.2919C52.9517 28.8516 52.9998 29.3637 53.0937 29.8332C53.1874 30.3053 53.3445 30.7093 53.5672 31.0506C53.7878 31.3895 54.0863 31.653 54.4588 31.8414C54.8312 32.0298 55.2998 32.1251 55.862 32.1251C56.4218 32.1251 56.8904 32.0222 57.2702 31.8164C57.6501 31.6106 57.9563 31.3346 58.1895 30.9831C58.4202 30.6341 58.5872 30.2277 58.6861 29.7679C58.7847 29.3087 58.8328 28.8217 58.8328 28.3069H58.8333ZM67.3766 30.4183C67.3766 30.8628 67.2932 31.2591 67.1284 31.6081C66.9611 31.9547 66.7306 32.2509 66.4368 32.4945C66.1429 32.7354 65.796 32.9189 65.3983 33.0417C64.9981 33.1647 64.5699 33.2251 64.109 33.2251C63.7874 33.2251 63.4885 33.1976 63.2147 33.1446C62.9387 33.0893 62.6931 33.0215 62.4778 32.9439C62.2625 32.8661 62.0828 32.783 61.9356 32.7003C61.7911 32.6151 61.6876 32.5446 61.6318 32.4844C61.5736 32.4267 61.533 32.3513 61.5049 32.2612C61.4772 32.1708 61.4646 32.0502 61.4646 31.8997C61.4646 31.7919 61.4698 31.7012 61.4797 31.631C61.4898 31.5608 61.5049 31.5031 61.5228 31.4603C61.5431 31.4151 61.5684 31.3852 61.5989 31.3675C61.6291 31.3498 61.662 31.3422 61.7027 31.3422C61.7711 31.3422 61.8702 31.3849 61.9966 31.4677C62.1207 31.5504 62.2828 31.6408 62.483 31.7388C62.6805 31.8341 62.9186 31.9272 63.1999 32.0124C63.4784 32.0976 63.8025 32.1403 64.1675 32.1403C64.446 32.1403 64.6992 32.1028 64.93 32.0301C65.1604 31.9574 65.3579 31.8542 65.5224 31.7187C65.6894 31.5855 65.8163 31.42 65.905 31.2243C65.9937 31.0283 66.0393 30.8048 66.0393 30.5563C66.0393 30.2879 65.9783 30.057 65.8545 29.8659C65.7303 29.6754 65.5683 29.5071 65.3656 29.3615C65.1604 29.2183 64.93 29.0852 64.6715 28.9649C64.4106 28.8445 64.1447 28.7239 63.8736 28.5982C63.6025 28.4724 63.3367 28.3347 63.0807 28.1814C62.8225 28.0309 62.5918 27.8526 62.3893 27.6468C62.1866 27.441 62.0221 27.2 61.898 26.9216C61.7711 26.6455 61.7079 26.3142 61.7079 25.9274C61.7079 25.5283 61.7815 25.1744 61.9257 24.863C62.0727 24.5543 62.2751 24.2933 62.5335 24.0823C62.7945 23.8713 63.1035 23.7107 63.4605 23.6002C63.8201 23.4899 64.2051 23.4347 64.6204 23.4347C64.8333 23.4347 65.0461 23.4521 65.2612 23.4899C65.4765 23.5275 65.6792 23.5754 65.8693 23.638C66.0594 23.6985 66.2288 23.7687 66.3783 23.8438C66.5252 23.9192 66.6241 23.9818 66.6697 24.0273C66.7177 24.0749 66.7482 24.1101 66.7633 24.1378C66.7784 24.1653 66.7886 24.2004 66.7988 24.2407C66.8089 24.2835 66.8163 24.3335 66.8216 24.394C66.8265 24.4517 66.829 24.5271 66.829 24.6226C66.829 24.7106 66.8265 24.7884 66.8191 24.8584C66.8114 24.9262 66.7988 24.9839 66.7837 25.0318C66.771 25.077 66.7482 25.1121 66.7227 25.1347C66.6949 25.1573 66.6645 25.1671 66.629 25.1671C66.5733 25.1671 66.4898 25.132 66.3733 25.0642C66.2566 24.9937 66.1151 24.9183 65.9451 24.8306C65.7778 24.7454 65.5779 24.6676 65.3474 24.5973C65.1195 24.5246 64.861 24.4893 64.5724 24.4893C64.3065 24.4893 64.0733 24.5246 63.8755 24.5949C63.6781 24.6676 63.5135 24.7607 63.3842 24.8785C63.2575 24.9964 63.1614 25.1347 63.0955 25.2953C63.0323 25.4584 62.9994 25.6291 62.9994 25.8098C62.9994 26.0733 63.0601 26.3017 63.1842 26.4925C63.3084 26.6834 63.4729 26.8516 63.6783 26.9997C63.886 27.1478 64.1189 27.2809 64.3823 27.4039C64.6432 27.527 64.9118 27.65 65.1854 27.7755C65.4565 27.9007 65.7248 28.0366 65.9858 28.1871C66.2492 28.3352 66.4821 28.5138 66.6897 28.7171C66.8949 28.9202 67.0597 29.159 67.1863 29.4374C67.3126 29.7135 67.3761 30.0401 67.3761 30.4191L67.3766 30.4183ZM74.5423 32.5647C74.5423 32.6551 74.5371 32.733 74.5269 32.798C74.5167 32.8633 74.4992 32.9186 74.4764 32.9635C74.4508 33.0087 74.4231 33.0389 74.3901 33.0591C74.3572 33.0792 74.3217 33.0893 74.2814 33.0893H69.669C69.555 33.0893 69.4462 33.0517 69.3449 32.9763C69.2438 32.8982 69.193 32.7653 69.193 32.5745V24.0845C69.193 23.8939 69.2438 23.7605 69.3449 23.6829C69.4462 23.6078 69.5553 23.57 69.669 23.57H74.2281C74.2685 23.57 74.3042 23.58 74.3371 23.5999C74.3701 23.6201 74.3953 23.6503 74.4157 23.6955C74.4333 23.7407 74.4511 23.7959 74.4637 23.8612C74.4767 23.9263 74.4816 24.0091 74.4816 24.1071C74.4816 24.1974 74.4764 24.2726 74.4637 24.3406C74.4511 24.4057 74.4333 24.4609 74.4157 24.5037C74.3953 24.5437 74.3676 24.5739 74.3371 24.5941C74.3042 24.6139 74.2687 24.624 74.2281 24.624H70.4693V27.6062H73.6961C73.7367 27.6062 73.7721 27.6163 73.8051 27.6389C73.8356 27.6615 73.8633 27.6917 73.8861 27.7317C73.9089 27.772 73.924 27.8245 73.9342 27.8923C73.9444 27.9628 73.9496 28.0428 73.9496 28.1357C73.9496 28.2261 73.9444 28.3012 73.9342 28.3643C73.924 28.4297 73.9089 28.4798 73.8861 28.5198C73.8633 28.5601 73.8356 28.5876 73.8051 28.6053C73.7721 28.623 73.7367 28.6303 73.6961 28.6303H70.4693V32.0344H74.2814C74.3217 32.0344 74.3572 32.0445 74.3901 32.0647C74.4231 32.0848 74.4508 32.1147 74.4764 32.155C74.4992 32.1975 74.5167 32.2528 74.5269 32.3181C74.5371 32.3834 74.5423 32.4662 74.5423 32.5642V32.5647ZM81.5989 32.5345C81.5989 32.6352 81.5937 32.718 81.5835 32.783C81.5734 32.8484 81.5582 32.9061 81.5354 32.9537C81.5127 32.9992 81.4874 33.0343 81.4544 33.0566C81.4215 33.0792 81.3833 33.0893 81.338 33.0893H77.0903C76.9763 33.0893 76.8676 33.0517 76.7662 32.9763C76.6651 32.8982 76.6143 32.7653 76.6143 32.5745V23.7605C76.6143 23.7205 76.6242 23.6854 76.6446 23.6576C76.6649 23.6274 76.6978 23.6048 76.7484 23.5874C76.7964 23.57 76.8648 23.5547 76.9483 23.5422C77.0318 23.5294 77.1332 23.5248 77.2521 23.5248C77.3763 23.5248 77.4776 23.5297 77.5614 23.5422C77.6424 23.5547 77.708 23.5697 77.7564 23.5874C77.8069 23.6048 77.8399 23.6274 77.8602 23.6576C77.8803 23.6851 77.8904 23.7202 77.8904 23.7605V31.9895H81.3377C81.3833 31.9895 81.4212 31.9996 81.4542 32.0222C81.4844 32.045 81.5124 32.0774 81.5352 32.1177C81.558 32.1602 81.5731 32.2155 81.5832 32.286C81.5934 32.3538 81.5986 32.4368 81.5986 32.5345H81.5989ZM89.2661 32.8835C89.2661 32.9235 89.2559 32.9586 89.2383 32.9913C89.2229 33.024 89.1875 33.049 89.1394 33.0692C89.0889 33.0868 89.023 33.1045 88.9395 33.1171C88.856 33.1296 88.747 33.1345 88.6129 33.1345C88.4407 33.1345 88.2987 33.1271 88.1897 33.1119C88.0809 33.0966 87.9996 33.0719 87.9441 33.0316C87.8911 32.9913 87.8452 32.9486 87.8126 32.8985L84.279 28.1389V32.8985C84.279 32.9339 84.2689 32.9665 84.2488 32.9992C84.2285 33.0291 84.1955 33.0544 84.145 33.0719C84.0969 33.0893 84.031 33.1045 83.95 33.1171C83.8665 33.1296 83.7651 33.1345 83.6407 33.1345C83.5218 33.1345 83.4204 33.1296 83.3369 33.1171C83.2535 33.1045 83.1848 33.0896 83.1367 33.0719C83.0859 33.0544 83.0532 33.0291 83.0329 32.9992C83.0126 32.9665 83.0027 32.9339 83.0027 32.8985V23.7608C83.0027 23.7208 83.0126 23.6857 83.0329 23.6579C83.0532 23.6277 83.0862 23.6051 83.1367 23.5877C83.1848 23.5702 83.2532 23.555 83.3369 23.5425C83.4204 23.5297 83.5218 23.5251 83.6407 23.5251C83.7649 23.5251 83.8662 23.53 83.95 23.5425C84.031 23.555 84.0967 23.57 84.145 23.5877C84.1955 23.6051 84.2285 23.6277 84.2488 23.6579C84.2689 23.6854 84.279 23.7205 84.279 23.7608V27.9909L87.6782 23.7608C87.7087 23.7156 87.7417 23.6808 87.7821 23.6505C87.82 23.6203 87.8683 23.598 87.9265 23.5803C87.9823 23.5626 88.0532 23.5501 88.1342 23.54C88.2155 23.53 88.3218 23.5251 88.4509 23.5251C88.5778 23.5251 88.6816 23.53 88.7623 23.5425C88.8409 23.555 88.9043 23.5724 88.9499 23.5901C88.998 23.6103 89.031 23.6356 89.0461 23.6655C89.0639 23.693 89.0738 23.7259 89.0738 23.7608C89.0738 23.8237 89.0562 23.889 89.0257 23.9516C88.9928 24.0142 88.9321 24.1049 88.8434 24.2176L85.6595 27.9909L89.0867 32.5095C89.1727 32.6374 89.2232 32.7226 89.2386 32.7705C89.2562 32.8157 89.2663 32.856 89.2663 32.8835H89.2661ZM92.1739 32.8985C92.1739 32.9388 92.1637 32.9739 92.1437 33.0014C92.1234 33.0316 92.0904 33.0542 92.0399 33.0719C91.9918 33.0893 91.9259 33.1045 91.8449 33.1171C91.7614 33.1296 91.66 33.1345 91.5359 33.1345C91.4169 33.1345 91.3156 33.1296 91.2321 33.1171C91.1486 33.1045 91.0799 33.0896 91.0319 33.0719C90.9813 33.0544 90.9484 33.0316 90.928 33.0014C90.9077 32.9739 90.8978 32.9388 90.8978 32.8985V23.7608C90.8978 23.7208 90.9077 23.6857 90.9305 23.6579C90.9536 23.6277 90.9912 23.6051 91.042 23.5877C91.095 23.5702 91.161 23.555 91.2423 23.5425C91.3233 23.5297 91.4222 23.5251 91.5359 23.5251C91.66 23.5251 91.7614 23.53 91.8449 23.5425C91.9262 23.555 91.9918 23.57 92.0399 23.5877C92.0904 23.6051 92.1234 23.6277 92.1437 23.6579C92.1637 23.6854 92.1739 23.7205 92.1739 23.7608V32.8985ZM100.001 18.9822C100.001 19.0723 99.9957 19.1502 99.9856 19.2155C99.9754 19.2808 99.9578 19.3361 99.9347 19.3813C99.9095 19.4265 99.8815 19.4567 99.8485 19.4768C99.8155 19.4967 99.7801 19.5068 99.7397 19.5068H95.1273C95.0134 19.5068 94.9043 19.4692 94.8032 19.3938C94.7019 19.316 94.6514 19.1828 94.6514 18.9923V10.5022C94.6514 10.3117 94.7019 10.1783 94.8032 10.1004C94.9043 10.0253 95.0136 9.98746 95.1273 9.98746H99.6864C99.7271 9.98746 99.7625 9.99753 99.7955 10.0177C99.8284 10.0378 99.8537 10.0678 99.874 10.1132C99.8916 10.1584 99.9095 10.2134 99.9221 10.2787C99.935 10.3438 99.94 10.4268 99.94 10.5246C99.94 10.6152 99.9347 10.6903 99.9221 10.7581C99.9095 10.8232 99.8919 10.8784 99.874 10.9212C99.8537 10.9612 99.826 10.9914 99.7955 11.0118C99.7625 11.0317 99.7271 11.0418 99.6864 11.0418H95.9277V14.024H99.1547C99.1954 14.024 99.2308 14.034 99.2637 14.0566C99.2942 14.0792 99.322 14.1094 99.345 14.1495C99.3678 14.1895 99.3829 14.2423 99.3931 14.3101C99.4033 14.3803 99.4082 14.4606 99.4082 14.5534C99.4082 14.6441 99.4033 14.7192 99.3931 14.7821C99.3829 14.8474 99.3678 14.8978 99.345 14.9378C99.3222 14.9778 99.2942 15.0056 99.2637 15.023C99.2308 15.0407 99.1954 15.0483 99.1547 15.0483H95.9277V18.4525H99.7397C99.7801 18.4525 99.8155 18.4625 99.8485 18.4824C99.8815 18.5026 99.9095 18.5325 99.9347 18.5728C99.9575 18.6153 99.9754 18.6705 99.9856 18.7359C99.9957 18.8012 100.001 18.8839 100.001 18.9819V18.9822ZM92.2678 11.2879C92.2678 11.3807 92.2626 11.4634 92.2525 11.5337C92.2423 11.6039 92.2272 11.6641 92.2096 11.712C92.1893 11.7572 92.164 11.7898 92.1335 11.8097C92.1058 11.8299 92.0728 11.8399 92.0374 11.8399C91.9792 11.8399 91.8803 11.7923 91.741 11.6992C91.6018 11.6064 91.4169 11.5007 91.1838 11.388C90.9508 11.2751 90.6721 11.1694 90.348 11.0766C90.0236 10.9841 89.6388 10.9362 89.1952 10.9362C88.6635 10.9362 88.1899 11.0314 87.7694 11.2223C87.3489 11.4155 86.9919 11.679 86.7005 12.018C86.4066 12.3569 86.1838 12.7587 86.0267 13.2253C85.8721 13.6921 85.7935 14.1971 85.7935 14.7415C85.7935 15.3516 85.8795 15.8914 86.0492 16.3634C86.2214 16.833 86.4571 17.2318 86.7612 17.5558C87.0625 17.8797 87.4223 18.1255 87.8425 18.2916C88.2603 18.4598 88.7214 18.5426 89.2205 18.5426C89.5193 18.5426 89.8209 18.5075 90.1247 18.4348C90.4284 18.3643 90.7122 18.2565 90.9756 18.116V15.3344H88.7516C88.6654 15.3344 88.6022 15.2917 88.5616 15.2087C88.5184 15.1259 88.4981 14.9953 88.4981 14.8172C88.4981 14.7244 88.5033 14.6441 88.5135 14.5788C88.5237 14.5134 88.539 14.4582 88.5616 14.4154C88.5844 14.3754 88.6096 14.3449 88.6401 14.325C88.6679 14.3049 88.706 14.2948 88.7516 14.2948H91.7987C91.8545 14.2948 91.9075 14.3049 91.9632 14.325C92.0165 14.3449 92.0671 14.3727 92.1102 14.413C92.1558 14.4533 92.1912 14.5058 92.214 14.5736C92.2396 14.6441 92.2519 14.7217 92.2519 14.8096V18.4421C92.2519 18.5701 92.2291 18.6806 92.186 18.7734C92.1404 18.8662 92.0467 18.949 91.9023 19.0195C91.7605 19.0895 91.5729 19.1676 91.345 19.2503C91.117 19.3356 90.8841 19.4058 90.641 19.4662C90.3979 19.5239 90.1521 19.5691 89.9063 19.5966C89.6583 19.6268 89.4125 19.6418 89.1719 19.6418C88.4273 19.6418 87.7637 19.5288 87.1811 19.3004C86.5961 19.0718 86.102 18.7457 85.6996 18.3237C85.2967 17.902 84.9877 17.3973 84.7751 16.8074C84.5622 16.2175 84.4559 15.5623 84.4559 14.8344C84.4559 14.0787 84.5699 13.3935 84.8003 12.781C85.0311 12.1685 85.3552 11.6464 85.7729 11.2119C86.191 10.7802 86.6925 10.4462 87.2775 10.2077C87.865 9.96922 88.5135 9.85107 89.2251 9.85107C89.5924 9.85107 89.9343 9.88374 90.256 9.94635C90.5776 10.0117 90.8641 10.0871 91.1148 10.1723C91.3628 10.2602 91.5732 10.3531 91.7454 10.456C91.9152 10.5564 92.0316 10.6392 92.0976 10.7045C92.161 10.7671 92.2066 10.8425 92.2294 10.9255C92.2547 11.0083 92.2673 11.1289 92.2673 11.287L92.2678 11.2879ZM83.5726 19.0598C83.6105 19.1679 83.6333 19.2531 83.6358 19.3209C83.6385 19.3862 83.6182 19.4366 83.58 19.4717C83.5397 19.5043 83.4737 19.5269 83.3825 19.5367C83.2914 19.5468 83.1697 19.552 83.0153 19.552C82.8632 19.552 82.7393 19.5495 82.6478 19.5419C82.5569 19.5345 82.4885 19.522 82.4402 19.5043C82.3921 19.4866 82.3592 19.464 82.3364 19.4338C82.3136 19.4036 82.2935 19.3685 82.2732 19.3236L81.45 17.0064H77.4584L76.6706 19.2934C76.6555 19.3386 76.638 19.3761 76.6124 19.4091C76.5871 19.4417 76.5517 19.4668 76.5034 19.4894C76.4578 19.512 76.3894 19.5269 76.3031 19.537C76.2172 19.5471 76.1057 19.5522 75.9664 19.5522C75.8219 19.5522 75.7055 19.5471 75.6143 19.5348C75.5228 19.5223 75.4569 19.4997 75.4218 19.4643C75.3839 19.4292 75.366 19.3791 75.3685 19.3138C75.3712 19.246 75.3913 19.1605 75.4319 19.0527L78.6512 10.2088C78.6716 10.1535 78.6993 10.1083 78.7298 10.0757C78.7627 10.0403 78.8083 10.0128 78.8715 9.99508C78.9325 9.97494 79.0108 9.95996 79.1096 9.95234C79.2058 9.94499 79.3274 9.94254 79.4769 9.94254C79.6337 9.94254 79.7655 9.94499 79.8696 9.95234C79.9734 9.95996 80.0569 9.97494 80.1204 9.99508C80.1863 10.0125 80.2344 10.0427 80.2698 10.0778C80.3052 10.1154 80.333 10.1606 80.3506 10.2134L83.5726 19.0601V19.0598ZM79.439 11.2525H79.4315L77.7778 15.997H81.116L79.4392 11.2525H79.439ZM76.3331 10.5295C76.3331 10.6223 76.3281 10.7029 76.318 10.7704C76.3078 10.8382 76.2927 10.8934 76.2699 10.9362C76.2471 10.9762 76.2218 11.0088 76.1889 11.0263C76.1559 11.0464 76.1205 11.0565 76.0826 11.0565H73.3851V19.3154C73.3851 19.3557 73.375 19.3884 73.3547 19.4183C73.3346 19.4485 73.3016 19.4711 73.2508 19.4885C73.2028 19.506 73.1369 19.5212 73.0558 19.5337C72.9723 19.5463 72.871 19.5512 72.7471 19.5512C72.6279 19.5512 72.5266 19.546 72.4431 19.5337C72.3596 19.5212 72.2912 19.5062 72.2428 19.4885C72.1923 19.4711 72.1593 19.4485 72.1393 19.4183C72.119 19.3881 72.1088 19.3557 72.1088 19.3154V11.0565H69.4113C69.3734 11.0565 69.338 11.0464 69.305 11.0263C69.2721 11.0088 69.2468 10.9762 69.2265 10.9362C69.2089 10.8934 69.1908 10.8382 69.1784 10.7704C69.1658 10.7026 69.1609 10.6223 69.1609 10.5295C69.1609 10.4366 69.1661 10.3536 69.1784 10.2834C69.1911 10.2131 69.2089 10.1554 69.2265 10.113C69.2465 10.0675 69.2721 10.0351 69.305 10.0174C69.338 9.99753 69.3734 9.98719 69.4113 9.98719H76.0829C76.1208 9.98719 76.1562 9.99726 76.1892 10.0174C76.2221 10.0348 76.2474 10.0675 76.2702 10.113C76.2933 10.1554 76.3081 10.2131 76.3183 10.2834C76.3284 10.3536 76.3334 10.4366 76.3334 10.5295H76.3331ZM68.1982 10.5295C68.1982 10.6223 68.1932 10.7029 68.1831 10.7704C68.1729 10.8382 68.1578 10.8934 68.135 10.9362C68.1122 10.9762 68.0869 11.0088 68.054 11.0263C68.021 11.0464 67.9856 11.0565 67.9477 11.0565H65.2502V19.3154C65.2502 19.3557 65.2401 19.3884 65.2197 19.4183C65.1997 19.4485 65.1667 19.4711 65.1159 19.4885C65.0678 19.506 65.0019 19.5212 64.9209 19.5337C64.8374 19.5463 64.7361 19.5512 64.6122 19.5512C64.493 19.5512 64.3916 19.546 64.3081 19.5337C64.2246 19.5212 64.1562 19.5062 64.1079 19.4885C64.0574 19.4711 64.0244 19.4485 64.0041 19.4183C63.9838 19.3881 63.9736 19.3557 63.9736 19.3154V11.0565H61.2761C61.2382 11.0565 61.2028 11.0464 61.1699 11.0263C61.1369 11.0088 61.1116 10.9762 61.0913 10.9362C61.0737 10.8934 61.0556 10.8382 61.0432 10.7704C61.0306 10.7026 61.0257 10.6223 61.0257 10.5295C61.0257 10.4366 61.0309 10.3536 61.0432 10.2834C61.0559 10.2131 61.0737 10.1554 61.0913 10.113C61.1113 10.0675 61.1369 10.0351 61.1699 10.0174C61.2028 9.99753 61.2382 9.98719 61.2761 9.98719H67.9477C67.9856 9.98719 68.021 9.99726 68.054 10.0174C68.0869 10.0348 68.1122 10.0675 68.135 10.113C68.1581 10.1554 68.1729 10.2131 68.1831 10.2834C68.1932 10.3536 68.1982 10.4366 68.1982 10.5295ZM60.9339 14.6365C60.9339 15.4071 60.843 16.0999 60.6604 16.7176C60.4755 17.335 60.2019 17.8598 59.8399 18.294C59.4752 18.7258 59.0192 19.0598 58.4697 19.2931C57.9201 19.5267 57.2793 19.6421 56.547 19.6421C55.8252 19.6421 55.2023 19.5365 54.6752 19.3233C54.1459 19.1099 53.7128 18.7987 53.3681 18.3918C53.0237 17.9851 52.7677 17.4804 52.6007 16.8779C52.4309 16.2755 52.3472 15.5824 52.3472 14.7993C52.3472 14.0487 52.4386 13.366 52.6207 12.7532C52.8059 12.1407 53.0794 11.6211 53.4466 11.1918C53.8114 10.7652 54.2698 10.4336 54.8194 10.2001C55.3665 9.96677 56.007 9.85107 56.7418 9.85107C57.4487 9.85107 58.064 9.95642 58.5883 10.1677C59.1126 10.3784 59.5507 10.6846 59.8976 11.0889C60.2473 11.4928 60.5082 11.9926 60.6777 12.5899C60.8474 13.185 60.9334 13.8677 60.9334 14.6359L60.9339 14.6365ZM59.5815 14.7244C59.5815 14.1873 59.5334 13.6853 59.437 13.2234C59.3409 12.7614 59.1813 12.3599 58.9558 12.0182C58.7303 11.6793 58.4312 11.4131 58.0566 11.2225C57.6792 11.0317 57.2158 10.9364 56.6635 10.9364C56.1089 10.9364 55.6453 11.0393 55.2704 11.2451C54.8955 11.4509 54.589 11.7248 54.356 12.0661C54.1207 12.41 53.9534 12.8093 53.852 13.2685C53.7507 13.7253 53.6999 14.205 53.6999 14.7097C53.6999 15.2694 53.7479 15.7814 53.8419 16.2507C53.9355 16.7228 54.0926 17.127 54.3154 17.4684C54.536 17.8073 54.8345 18.0708 55.2069 18.2592C55.5791 18.4476 56.048 18.5428 56.6102 18.5428C57.17 18.5428 57.6385 18.4399 58.0184 18.2341C58.3982 18.0283 58.7045 17.7523 58.9377 17.4009C59.1684 17.0519 59.3354 16.6452 59.4343 16.1857C59.5329 15.7262 59.5809 15.2394 59.5809 14.7247L59.5815 14.7244Z" fill="#2C2C2C"/>
<path fill-rule="evenodd" clip-rule="evenodd" d="M33.2537 11.1132H33.2531C31.6615 11.1132 30.3593 12.4038 30.3593 13.9814V29.0951C30.3593 30.6727 31.6615 31.9633 33.2531 31.9633H33.2537C34.8454 31.9633 36.1475 30.6727 36.1475 29.0951V13.9814C36.1475 12.4038 34.8454 11.1132 33.2537 11.1132ZM2.89481 11.1132H2.89536C4.48702 11.1132 5.78919 12.4038 5.78919 13.9814V29.0951C5.78919 30.6727 4.48702 31.9633 2.89536 31.9633H2.89481C1.30315 31.9633 0.000976562 30.6727 0.000976562 29.0951V13.9814C0.000976562 12.4038 1.30315 11.1132 2.89481 11.1132ZM10.4843 5.49975H10.4848C12.0765 5.49975 13.3786 6.79009 13.3786 8.36761V34.7086C13.3786 36.2861 12.0765 37.5767 10.4848 37.5767H10.4843C8.89259 37.5767 7.59042 36.2861 7.59042 34.7086V8.36761C7.59042 6.79009 8.89259 5.49975 10.4843 5.49975ZM18.074 -0.000488281H18.0745C19.6662 -0.000488281 20.9681 1.29012 20.9681 2.86764V40.2086C20.9681 41.7861 19.6659 43.0767 18.0745 43.0767H18.074C16.4823 43.0767 15.1804 41.7861 15.1804 40.2086V2.86764C15.1804 1.29012 16.4826 -0.000488281 18.074 -0.000488281ZM25.6642 5.49975H25.6637C24.072 5.49975 22.7699 6.79009 22.7699 8.36761V34.7086C22.7699 36.2861 24.072 37.5767 25.6637 37.5767H25.6642C27.2559 37.5767 28.5581 36.2861 28.5581 34.7086V8.36761C28.5581 6.79009 27.2559 5.49975 25.6642 5.49975Z" fill="url(#paint0_radial_56_7497)"/>
<path fill-rule="evenodd" clip-rule="evenodd" d="M30.3583 17.9662V22.3133L36.1463 26.539V22.1919L30.3583 17.9662ZM0 22.1919V26.539L5.78794 22.3133V17.9662L0 22.1919ZM15.1792 11.1098V15.4569L18.0733 13.3442L20.9671 15.4569V11.1098L18.0733 8.99707L15.1792 11.1098ZM22.7689 12.4254V16.7725L28.5568 20.998V16.6509L22.7689 12.4254Z" fill="#005AA3"/>
<path fill-rule="evenodd" clip-rule="evenodd" d="M2.89453 11.1135C4.4862 11.1135 5.78837 12.4043 5.78837 13.9819V16.6513C5.42444 16.4871 5.02124 16.3954 4.59716 16.3954C3.0055 16.3954 1.70333 17.6863 1.70333 19.2638V31.7079C0.701638 31.2554 0.000976562 30.2528 0.000976562 29.0956V13.9821C0.000976562 12.4046 1.30315 11.1137 2.89481 11.1137L2.89453 11.1135ZM10.4843 5.49997H10.4845C12.0762 5.49997 13.3784 6.79057 13.3784 8.3681V11.0378C13.0147 10.8736 12.6112 10.7819 12.1872 10.7819C10.5955 10.7819 9.29332 12.0725 9.29332 13.6503V37.3211C8.29163 36.8689 7.59069 35.866 7.59069 34.7091V8.36837C7.59069 6.79085 8.89287 5.50024 10.4845 5.50024L10.4843 5.49997ZM18.0737 0H18.074C19.6656 0 20.9678 1.2906 20.9678 2.8684V5.53781C20.6042 5.37366 20.2007 5.28192 19.7766 5.28192H19.7763C18.1847 5.28192 16.8825 6.57252 16.8825 8.15032V42.8213C15.8808 42.3692 15.1801 41.3666 15.1801 40.2091V2.86867C15.1801 1.29088 16.4823 0.000272222 18.074 0.000272222L18.0737 0ZM25.6634 5.49997H25.6631C24.0715 5.49997 22.7693 6.79057 22.7693 8.3681V34.7088C22.7693 35.8658 23.47 36.8686 24.4719 37.3208V13.65C24.4719 12.0722 25.7741 10.7816 27.3658 10.7816C27.7898 10.7816 28.1933 10.8734 28.557 11.0375V8.36783C28.557 6.7903 27.2548 5.4997 25.6631 5.4997L25.6634 5.49997ZM33.2531 11.1135C31.6615 11.1135 30.3593 12.4043 30.3593 13.9819V29.0953C30.3593 30.2526 31.06 31.2551 32.0619 31.7076V19.2635C32.0619 17.686 33.3641 16.3951 34.9558 16.3951H34.956C35.3801 16.3951 35.7836 16.4868 36.1472 16.651V13.9816C36.1472 12.4041 34.8451 11.1132 33.2534 11.1132L33.2531 11.1135Z" fill="#0052A3"/>
<path fill-rule="evenodd" clip-rule="evenodd" d="M33.2537 11.1135C31.662 11.1135 30.3598 12.4043 30.3598 13.9819V29.0953C30.3598 29.9262 30.7213 30.6772 31.2956 31.2023C31.1437 30.8544 31.0591 30.4717 31.0591 30.0702V14.9567C31.0591 13.3792 32.3613 12.0886 33.953 12.0886C34.7064 12.0886 35.3947 12.3779 35.911 12.8497C35.4661 11.8308 34.4402 11.1135 33.2537 11.1135ZM2.89508 11.1135C4.0819 11.1135 5.10748 11.8308 5.55243 12.8497C5.03634 12.3779 4.34777 12.0886 3.59437 12.0886H3.5941C2.00243 12.0886 0.700264 13.3792 0.700264 14.9567V30.0702C0.700264 30.4717 0.784586 30.8544 0.936748 31.2023C0.362156 30.6772 0.000976562 29.9262 0.000976562 29.0953V13.9819C0.000976562 12.4043 1.30315 11.1135 2.89481 11.1135H2.89508ZM10.4848 5.49997H10.4851C11.6713 5.49997 12.6972 6.21727 13.1424 7.23593C12.6261 6.76417 11.9378 6.4748 11.1846 6.4748C9.59298 6.4748 8.29081 7.7654 8.29081 9.34293V35.6837C8.29081 36.0849 8.37513 36.4679 8.52729 36.8156C7.95297 36.2904 7.59152 35.5394 7.59152 34.7086V8.36783C7.59152 6.7903 8.89369 5.4997 10.4854 5.4997L10.4848 5.49997ZM18.0742 0C16.4826 0 15.1804 1.2906 15.1804 2.8684V40.2088C15.1804 41.0396 15.5416 41.791 16.1162 42.3158C15.9643 41.9682 15.8797 41.5852 15.8797 41.1836V3.84323C15.8797 2.2657 17.1819 0.974826 18.7735 0.974826H18.7738C19.5272 0.974826 20.2155 1.2642 20.7316 1.73596C20.2864 0.717305 19.2608 0 18.0742 0ZM25.664 5.49997H25.6637C24.072 5.49997 22.7699 6.79057 22.7699 8.3681V34.7088C22.7699 35.5396 23.1313 36.2907 23.7056 36.8158C23.5537 36.4682 23.4691 36.0855 23.4691 35.6839V9.3432C23.4691 7.76567 24.7713 6.47507 26.363 6.47507C27.1164 6.47507 27.8047 6.76444 28.3208 7.2362C27.8755 6.21755 26.85 5.50024 25.6634 5.50024L25.664 5.49997Z" fill="url(#paint1_radial_56_7497)"/>
<path fill-rule="evenodd" clip-rule="evenodd" d="M30.3586 21.5353V22.3131L36.1465 26.5388V25.7607L30.3586 21.5353ZM7.58972 12.0977V12.8757H13.3777V12.0977H7.58972ZM0 25.7607V26.5388L5.78794 22.3131V21.5353L0 25.7607ZM15.1792 14.6786V15.4566L18.0733 13.3439L20.9671 15.4566V14.6786L18.0733 12.5659L15.1792 14.6786ZM22.7689 15.9942V16.7722L28.5568 20.9977V20.2199L22.7689 15.9942Z" fill="#004A9A"/>
<path fill-rule="evenodd" clip-rule="evenodd" d="M30.3586 22.3134V29.0952C30.3586 30.6728 31.6608 31.9634 33.2524 31.9634C34.8441 31.9634 36.1463 30.6728 36.1463 29.0952V26.5391L30.3583 22.3134H30.3586ZM13.3777 16.7723V12.876H7.58972V20.998V34.7087C7.58972 36.2862 8.89189 37.5771 10.4836 37.5771C12.0752 37.5771 13.3774 36.2865 13.3774 34.7087V16.7726L13.3777 16.7723ZM0.000274661 26.5391V29.0952C0.000274661 30.6728 1.30244 31.9634 2.89411 31.9634C4.48577 31.9634 5.78794 30.6728 5.78794 29.0952V22.3134L0 26.5391H0.000274661ZM15.1794 15.4569V40.2087C15.1794 41.7862 16.4816 43.0768 18.0733 43.0768C19.6649 43.0768 20.9671 41.7862 20.9671 40.2087V15.4569L18.0733 13.3439L15.1794 15.4569ZM22.7689 16.7726V34.7087C22.7689 36.2862 24.0711 37.5771 25.6627 37.5771C27.2544 37.5771 28.5565 36.2865 28.5565 34.7087V20.998L22.7686 16.7723L22.7689 16.7726Z" fill="#95C12B"/>
<path fill-rule="evenodd" clip-rule="evenodd" d="M22.7688 16.7722V34.7084C22.7688 36.2859 24.071 37.5768 25.6627 37.5768C27.2543 37.5768 28.5565 36.2862 28.5565 34.7084V20.9977L22.7686 16.772L22.7688 16.7722Z" fill="#589308"/>
<path fill-rule="evenodd" clip-rule="evenodd" d="M15.1797 15.4567V40.2085C15.1797 41.786 16.4819 43.0766 18.0735 43.0766C19.6652 43.0766 20.9674 41.786 20.9674 40.2085V15.4567L18.0735 13.3438L15.1797 15.4567Z" fill="#589308"/>
<path fill-rule="evenodd" clip-rule="evenodd" d="M0.000274661 26.5387V29.0949C0.000274661 30.6724 1.30244 31.963 2.89411 31.963C4.48577 31.963 5.78794 30.6724 5.78794 29.0949V22.313L0 26.5387H0.000274661Z" fill="#589308"/>
<path fill-rule="evenodd" clip-rule="evenodd" d="M13.3778 12.876H7.58984V34.7084C7.58984 36.286 8.89201 37.5768 10.4837 37.5768C12.0753 37.5768 13.3775 36.2862 13.3775 34.7084V12.876H13.3778Z" fill="#589308"/>
<path fill-rule="evenodd" clip-rule="evenodd" d="M30.3587 22.3135V29.0953C30.3587 30.6729 31.6608 31.9635 33.2525 31.9635C34.8442 31.9635 36.1463 30.6729 36.1463 29.0953V26.5392L30.3584 22.3135H30.3587Z" fill="#589308"/>
<path fill-rule="evenodd" clip-rule="evenodd" d="M25.862 19.0304V35.279C25.862 35.8305 25.4072 36.2811 24.8507 36.2811H24.8502C24.2937 36.2811 23.8389 35.8305 23.8389 35.279V17.5533L25.8617 19.0304H25.862ZM10.531 12.876V35.279C10.531 35.8305 10.0761 36.2811 9.51967 36.2811H9.51912C8.96293 36.2811 8.50781 35.8305 8.50781 35.279V12.876H10.5307H10.531Z" fill="#86B71F"/>
<path fill-rule="evenodd" clip-rule="evenodd" d="M18.0739 13.3442V40.7763C18.0739 41.3278 17.6191 41.7786 17.0626 41.7786H17.0621C16.5059 41.7786 16.0508 41.3278 16.0508 40.7763V14.8213L18.0737 13.3445L18.0739 13.3442Z" fill="#7DB218"/>
<path fill-rule="evenodd" clip-rule="evenodd" d="M33.5682 24.6568V29.8344C33.5682 30.3857 33.1133 30.8367 32.5569 30.8367H32.5563C32.0001 30.8367 31.545 30.3859 31.545 29.8344V23.1797L33.5679 24.6565L33.5682 24.6568ZM3.06976 24.298V29.8347C3.06976 30.3859 2.61492 30.837 2.05845 30.837H2.05818C1.50171 30.837 1.04688 30.3862 1.04688 29.8347V25.7751L3.06976 24.298Z" fill="#90BF27"/>
<path fill-rule="evenodd" clip-rule="evenodd" d="M30.3586 22.3134C30.3586 22.7462 30.3586 23.1793 30.3586 23.6121L36.1465 27.8378C36.1465 27.405 36.1465 26.9719 36.1465 26.5391L30.3586 22.3134ZM7.58972 14.1745H13.3777C13.3777 13.7416 13.3777 13.3088 13.3777 12.876H7.58972C7.58972 13.3088 7.58972 13.7416 7.58972 14.1745ZM0 27.8378L5.78794 23.6121C5.78794 23.1793 5.78794 22.7462 5.78794 22.3134L0 26.5391C0 26.9719 0 27.405 0 27.8378ZM15.1792 16.7557L18.073 14.643L20.9668 16.7557C20.9668 16.3228 20.9668 15.89 20.9668 15.4572L18.073 13.3442L15.1792 15.4572C15.1792 15.89 15.1792 16.3228 15.1792 16.7557ZM22.7686 18.0713L28.5565 22.2968C28.5565 21.8639 28.5565 21.4311 28.5565 20.998L22.7686 16.7726C22.7686 17.2054 22.7686 17.6385 22.7686 18.0713Z" fill="#CEEC4C"/>
</g>
<defs>
<radialGradient id="paint0_radial_56_7497" cx="0" cy="0" r="1" gradientUnits="userSpaceOnUse" gradientTransform="translate(18.073 21.5415) scale(19.8805 23.6923)">
<stop stop-color="#0076BE"/>
<stop offset="0.780392" stop-color="#005FAD"/>
<stop offset="1" stop-color="#00499C"/>
</radialGradient>
<radialGradient id="paint1_radial_56_7497" cx="0" cy="0" r="1" gradientUnits="userSpaceOnUse" gradientTransform="translate(17.9591 21.1579) scale(17.9548 21.1579)">
<stop stop-color="#006BB5"/>
<stop offset="0.4" stop-color="#004B99"/>
<stop offset="1" stop-color="#002B7D"/>
</radialGradient>
<clipPath id="clip0_56_7497">
<rect width="100" height="43.0769" fill="white"/>
</clipPath>
</defs>
</svg>
