<svg width="16" height="16" viewBox="0 0 16 16" fill="none" xmlns="http://www.w3.org/2000/svg">
<path d="M1.33693 3.02794C1.26967 2.07507 2.07655 1.3335 3.02982 1.3335H5.07038C5.55971 1.3335 6.00105 1.62834 6.18926 2.08096L7.04254 4.13314C7.2504 4.63304 7.10287 5.21046 6.68087 5.54878L6.14896 5.97519C5.91159 6.16548 5.83089 6.49362 5.97163 6.76336C6.69494 8.14956 7.76394 9.32603 9.06394 10.178C9.33834 10.3578 9.7008 10.2862 9.90554 10.0298L10.4598 9.3355C10.7974 8.91263 11.3736 8.76483 11.8725 8.9731L13.9204 9.82816C14.3721 10.0168 14.6663 10.459 14.6663 10.9494V13.0002C14.6663 13.9554 13.8989 14.7305 12.9481 14.6629C6.86774 14.2303 1.76799 9.13463 1.33693 3.02794Z" fill="white"/>
</svg>
