<svg width="52" height="52" viewBox="0 0 52 52" fill="none" xmlns="http://www.w3.org/2000/svg">
<circle cx="26" cy="26" r="26" fill="#2C2C2C"/>
<path d="M20.2345 34.6251C19.9467 34.6245 19.6639 34.5491 19.4141 34.4062C18.8516 34.0874 18.502 33.4687 18.502 32.797V19.2032C18.502 18.5296 18.8516 17.9127 19.4141 17.594C19.6699 17.447 19.9604 17.3714 20.2554 17.3751C20.5503 17.3788 20.8389 17.4617 21.0909 17.6151L32.7088 24.5695C32.951 24.7213 33.1506 24.9321 33.2889 25.1822C33.4273 25.4322 33.4999 25.7134 33.4999 25.9991C33.4999 26.2849 33.4273 26.566 33.2889 26.8161C33.1506 27.0662 32.951 27.277 32.7088 27.4288L21.089 34.3851C20.8311 34.541 20.5358 34.6239 20.2345 34.6251Z" fill="white"/>
</svg>
